# Made in Blockbench 5.1.3
mtllib complex.mtl

o pyramid
v 0.5 0 -0.5
v 0.5 0 0.5
v -0.5 0 0.5
v -0.5 0 -0.5
v 0 1.375 0
vt 0.5234375 0.875
vt 0.5234375 1
vt 0.3984375 1
vt 0.3984375 0.875
vt 0.2767956935213848 0.8471520263757546
vt 0.3950793064786152 0.8067294224791215
vt 0.3950793064786152 1
vt 0.20648319352138478 0.6596520263757546
vt 0.3247668064786152 0.6192294224791215
vt 0.3247668064786152 0.8125
vt 0.003358193521384764 0.6049645263757546
vt 0.12164180647861524 0.5645419224791215
vt 0.12164180647861521 0.7578125
vt 0.2846081935213848 0.5580895263757546
vt 0.4028918064786152 0.5176669224791215
vt 0.4028918064786152 0.7109375
vn 0 -1 0
vn 0.9397934234884372 0.34174306308670443 0
vn 0 0.34174306308670443 0.9397934234884372
vn 0 0.34174306308670443 -0.9397934234884372
vn -0.9397934234884372 0.34174306308670443 0
usemtl m_49fa28c7-745e-6e36-6e81-83feb7180262
f 1/1/1 2/2/1 3/3/1 4/4/1
f 2/5/2 1/6/2 5/7/2
f 3/8/3 2/9/3 5/10/3
f 1/11/4 4/12/4 5/13/4
f 4/14/5 3/15/5 5/16/5
o sphere
v 1.1294872981077806 0.8705127018922194 0.24999999999999994
v 1.2455127018922192 0.8705127018922194 0.18301270189221927
v 1.0625 0.9375 0
v 1.1785254037844386 0.6875 0.4330127018922193
v 1.3794872981077806 0.6875 0.31698729810778065
v 1.1964745962155614 0.43750000000000006 0.49999999999999994
v 1.4285254037844386 0.43750000000000006 0.36602540378443865
v 1.1785254037844386 0.1875000000000001 0.43301270189221935
v 1.3794872981077806 0.1875000000000001 0.3169872981077807
v 1.1294872981077806 0.004487298107780646 0.24999999999999994
v 1.2455127018922192 0.004487298107780646 0.18301270189221927
v 1.0625 -0.0625 0
v 1.3125 0.8705127018922194 0.06698729810778065
v 1.4955127018922192 0.6875 0.11602540378443862
v 1.5625 0.43750000000000006 0.13397459621556132
v 1.4955127018922194 0.1875000000000001 0.11602540378443864
v 1.3125 0.004487298107780646 0.06698729810778065
v 1.3125 0.8705127018922194 -0.06698729810778067
v 1.4955127018922192 0.6875 -0.11602540378443868
v 1.5625 0.43750000000000006 -0.13397459621556138
v 1.4955127018922194 0.1875000000000001 -0.1160254037844387
v 1.3125 0.004487298107780646 -0.06698729810778067
v 1.2455127018922192 0.8705127018922194 -0.18301270189221924
v 1.3794872981077806 0.6875 -0.31698729810778065
v 1.4285254037844386 0.43750000000000006 -0.3660254037844386
v 1.3794872981077808 0.1875000000000001 -0.31698729810778065
v 1.2455127018922192 0.004487298107780646 -0.18301270189221924
v 1.1294872981077808 0.8705127018922194 -0.2499999999999999
v 1.1785254037844388 0.6875 -0.43301270189221924
v 1.1964745962155614 0.43750000000000006 -0.4999999999999999
v 1.1785254037844388 0.1875000000000001 -0.4330127018922193
v 1.1294872981077808 0.004487298107780646 -0.2499999999999999
v 0.9955127018922194 0.8705127018922194 -0.24999999999999997
v 0.9464745962155615 0.6875 -0.43301270189221935
v 0.9285254037844388 0.43750000000000006 -0.5
v 0.9464745962155615 0.1875000000000001 -0.4330127018922194
v 0.9955127018922194 0.004487298107780646 -0.24999999999999997
v 0.8794872981077808 0.8705127018922194 -0.1830127018922193
v 0.7455127018922194 0.6875 -0.3169872981077807
v 0.6964745962155614 0.43750000000000006 -0.3660254037844387
v 0.7455127018922194 0.1875000000000001 -0.31698729810778076
v 0.8794872981077808 0.004487298107780646 -0.1830127018922193
v 0.8125 0.8705127018922194 -0.06698729810778062
v 0.6294872981077807 0.6875 -0.11602540378443858
v 0.5625 0.43750000000000006 -0.13397459621556126
v 0.6294872981077806 0.1875000000000001 -0.1160254037844386
v 0.8125 0.004487298107780646 -0.06698729810778062
v 0.8125 0.8705127018922194 0.06698729810778054
v 0.6294872981077806 0.6875 0.11602540378443843
v 0.5625 0.43750000000000006 0.1339745962155611
v 0.6294872981077806 0.1875000000000001 0.11602540378443844
v 0.8125 0.004487298107780646 0.06698729810778054
v 0.8794872981077807 0.8705127018922194 0.18301270189221922
v 0.7455127018922193 0.6875 0.3169872981077806
v 0.6964745962155613 0.43750000000000006 0.36602540378443854
v 0.7455127018922192 0.1875000000000001 0.3169872981077806
v 0.8794872981077807 0.004487298107780646 0.18301270189221922
v 0.9955127018922194 0.8705127018922194 0.24999999999999994
v 0.9464745962155614 0.6875 0.4330127018922193
v 0.9285254037844387 0.43750000000000006 0.49999999999999994
v 0.9464745962155614 0.1875000000000001 0.43301270189221935
v 0.9955127018922194 0.004487298107780646 0.24999999999999994
vt 0.5668833241581784 0.4424211315796257
vt 0.5815273875404874 0.45054573802674325
vt 0.5585098866581785 0.47477347532962566
vt 0.5668833241581784 0.4424211315796257
vt 0.5730130116581785 0.41006878782962564
vt 0.6000089197117678 0.4206793244524666
vt 0.5824695201567979 0.44854716753758783
vt 0.20312266265480122 0.5055357807389538
vt 0.196434375 0.4738029055394497
vt 0.22960746315052927 0.4691793234195222
vt 0.23185121315052926 0.5015316671695221
vt 0.196434375 0.4738029055394497
vt 0.194190625 0.44145056178944964
vt 0.22291917549572804 0.4374464482200181
vt 0.22960746315052927 0.4691793234195222
vt 0.194190625 0.44145056178944964
vt 0.19579560938283108 0.4085617910599637
vt 0.21238215345809572 0.40625
vt 0.22291917549572804 0.4374464482200181
vt 0.1050487508823089 0.9322667619732568
vt 0.09040468750000001 0.9403913684203743
vt 0.08203125000000001 0.9080390246703742
vt 0.5815273875404874 0.45054573802674325
vt 0.590391092704856 0.4647546279561069
vt 0.5585098866581785 0.47477347532962566
vt 0.5824695201567979 0.44854716753758783
vt 0.6000089197117678 0.4206793244524666
vt 0.6212524642655521 0.44042962454775325
vt 0.5947345659727568 0.45995008266478465
vt 0.5259612868494707 0.8921566671695221
vt 0.5282050368494707 0.8598043234195221
vt 0.5613781250000001 0.8644279055394497
vt 0.5546898373451987 0.8961607807389537
vt 0.5282050368494707 0.8598043234195221
vt 0.534893324504272 0.8280714482200181
vt 0.563621875 0.8320755617894496
vt 0.5613781250000001 0.8644279055394497
vt 0.12925381293424204 0.9545907890747427
vt 0.1050487508823089 0.9322667619732568
vt 0.1139124560466775 0.9180578720438931
vt 0.14460610092373066 0.9299804296188082
vt 0.1139124560466775 0.9180578720438931
vt 0.1050487508823089 0.9322667619732568
vt 0.08203125000000001 0.9080390246703742
vt 0.590391092704856 0.4647546279561069
vt 0.5912485076854193 0.4814795393704232
vt 0.5585098866581785 0.47477347532962566
vt 0.1791265625 0.8671875
vt 0.172996875 0.8359375
vt 0.202003125 0.8359375
vt 0.1958734375 0.8671875
vt 0.563621875 0.8967802492894497
vt 0.561378125 0.8644279055394497
vt 0.5948718749999999 0.8644279055394497
vt 0.5926281250000001 0.8967802492894497
vt 0.561378125 0.8644279055394497
vt 0.563621875 0.8320755617894496
vt 0.5926281250000001 0.8320755617894496
vt 0.5948718749999999 0.8644279055394497
vt 0.563621875 0.8320755617894496
vt 0.5697515625 0.7997232180394497
vt 0.5864984375 0.7997232180394497
vt 0.5926281250000001 0.8320755617894496
vt 0.1147698710272408 0.9013329606295767
vt 0.1139124560466775 0.9180578720438931
vt 0.08203125000000001 0.9080390246703742
vt 0.5912485076854193 0.4814795393704232
vt 0.5838843108556278 0.4965203647240305
vt 0.5585098866581785 0.47477347532962566
vt 0.16299407068542177 0.828125
vt 0.13647617239262627 0.8086045418829686
vt 0.15771971694641057 0.7888542417876819
vt 0.1752591165013806 0.8167220848728032
vt 0.6015601626548013 0.8961607807389537
vt 0.5948718749999999 0.8644279055394497
vt 0.6280449631505293 0.8598043234195221
vt 0.6302887131505293 0.8921566671695221
vt 0.5948718749999999 0.8644279055394497
vt 0.5926281250000001 0.8320755617894496
vt 0.621356675495728 0.8280714482200181
vt 0.6280449631505293 0.8598043234195221
vt 0.5926281250000001 0.8320755617894496
vt 0.594233109382831 0.7991867910599637
vt 0.6108196534580957 0.796875
vt 0.621356675495728 0.8280714482200181
vt 0.10740567419744924 0.8862921352759695
vt 0.1147698710272408 0.9013329606295767
vt 0.08203125000000001 0.9080390246703742
vt 0.5838843108556276 0.4965203647240305
vt 0.5701478643978167 0.5060999190444213
vt 0.5585098866581785 0.47477347532962566
vt 0.1752591165013806 0.8167220848728032
vt 0.15771971694641057 0.7888542417876819
vt 0.184715625 0.778243705164841
vt 0.19084531250000003 0.810596048914841
vt 0.5259612868494707 0.9937191671695221
vt 0.5282050368494707 0.9613668234195222
vt 0.5613781250000001 0.9659904055394497
vt 0.5546898373451987 0.9977232807389537
vt 0.5282050368494707 0.9613668234195222
vt 0.534893324504272 0.9296339482200181
vt 0.5636218749999999 0.9336380617894496
vt 0.5613781250000001 0.9659904055394497
vt 0.534893324504272 0.9296339482200181
vt 0.5454303465419044 0.8984375
vt 0.562016890617169 0.9007492910599638
vt 0.5636218749999999 0.9336380617894496
vt 0.09366922773963827 0.8767125809555787
vt 0.10740567419744922 0.8862921352759695
vt 0.08203125000000001 0.9080390246703742
vt 0.5635309871864461 0.5078125
vt 0.5468719089185402 0.5060999190444213
vt 0.5585098866581785 0.47477347532962566
vt 0.19084531250000003 0.810596048914841
vt 0.184715625 0.778243705164841
vt 0.213721875 0.778243705164841
vt 0.20759218750000002 0.810596048914841
vt 0.5636218749999999 0.9983427492894497
vt 0.5613781250000001 0.9659904055394497
vt 0.5948718749999999 0.9659904055394497
vt 0.5926281250000001 0.9983427492894497
vt 0.5613781250000001 0.9659904055394497
vt 0.5636218749999999 0.9336380617894496
vt 0.5926281250000001 0.9336380617894496
vt 0.5948718749999999 0.9659904055394497
vt 0.5636218749999999 0.9336380617894496
vt 0.5697515625 0.9012857180394497
vt 0.5864984375 0.9012857180394497
vt 0.5926281250000001 0.9336380617894496
vt 0.07701014947173236 0.875
vt 0.09366922773963825 0.8767125809555787
vt 0.08203125000000001 0.9080390246703743
vt 0.5468719089185402 0.5060999190444213
vt 0.5331354624607293 0.4965203647240305
vt 0.5585098866581785 0.47477347532962566
vt 0.20759218750000002 0.810596048914841
vt 0.213721875 0.778243705164841
vt 0.24071778305358943 0.7888542417876819
vt 0.22317838349861943 0.8167220848728032
vt 0.6015601626548013 0.9977232807389537
vt 0.5948718749999999 0.9659904055394497
vt 0.6280449631505293 0.9613668234195222
vt 0.6302887131505293 0.9937191671695221
vt 0.5948718749999999 0.9659904055394497
vt 0.5926281250000001 0.9336380617894496
vt 0.621356675495728 0.9296339482200181
vt 0.6280449631505293 0.9613668234195222
vt 0.5926281250000001 0.9336380617894496
vt 0.594233109382831 0.9007492910599637
vt 0.6108196534580957 0.8984375
vt 0.621356675495728 0.9296339482200181
vt 0.056656825802550784 0.8862921352759695
vt 0.07039327226036171 0.8767125809555787
vt 0.08203125000000001 0.9080390246703742
vt 0.5331354624607293 0.4965203647240305
vt 0.5257712656309377 0.4814795393704232
vt 0.5585098866581785 0.47477347532962566
vt 0.22317838349861946 0.8167220848728032
vt 0.24071778305358943 0.7888542417876819
vt 0.26196132760737373 0.8086045418829686
vt 0.2354434293145783 0.828125
vt 0.002523786849470702 0.8374691671695221
vt 0.004767536849470719 0.8051168234195221
vt 0.03794062499999999 0.8097404055394497
vt 0.03125233734519871 0.8414732807389537
vt 0.004767536849470719 0.8051168234195221
vt 0.011455824504271996 0.7733839482200181
vt 0.04018437500000001 0.7773880617894497
vt 0.03794062499999999 0.8097404055394497
vt 0.011455824504271996 0.7733839482200181
vt 0.02199284654190433 0.7421875
vt 0.03857939061716896 0.7444992910599637
vt 0.04018437500000001 0.7773880617894497
vt 0.049292628972759225 0.9013329606295767
vt 0.056656825802550784 0.8862921352759695
vt 0.08203125000000001 0.9080390246703742
vt 0.5257712656309377 0.4814795393704232
vt 0.526628680611501 0.4647546279561069
vt 0.5585098866581785 0.47477347532962566
vt 0.0775640625 0.765625
vt 0.071434375 0.734375
vt 0.100440625 0.734375
vt 0.0943109375 0.765625
vt 0.040184374999999994 0.8420927492894497
vt 0.03794062499999999 0.8097404055394497
vt 0.071434375 0.8097404055394497
vt 0.06919062499999999 0.8420927492894497
vt 0.03794062499999999 0.8097404055394497
vt 0.040184374999999994 0.7773880617894497
vt 0.06919062499999999 0.7773880617894497
vt 0.071434375 0.8097404055394497
vt 0.040184374999999994 0.7773880617894497
vt 0.04631406249999999 0.7450357180394497
vt 0.0630609375 0.7450357180394497
vt 0.06919062499999999 0.7773880617894497
vt 0.05015004395332252 0.9180578720438931
vt 0.049292628972759225 0.9013329606295767
vt 0.08203125000000001 0.9080390246703742
vt 0.526628680611501 0.4647546279561069
vt 0.5354923857758696 0.45054573802674325
vt 0.5585098866581785 0.47477347532962566
vt 0.526628680611501 0.4647546279561069
vt 0.4959350357344478 0.4528320703811918
vt 0.5112873237239364 0.4282217109252572
vt 0.5354923857758696 0.45054573802674325
vt 0.07812266265480129 0.8414732807389537
vt 0.071434375 0.8097404055394497
vt 0.10460746315052927 0.8051168234195221
vt 0.1068512131505293 0.8374691671695221
vt 0.071434375 0.8097404055394497
vt 0.06919062499999999 0.7773880617894497
vt 0.097919175495728 0.7733839482200181
vt 0.10460746315052927 0.8051168234195221
vt 0.019456399076269337 0.9299804296188082
vt 0.05015004395332252 0.9180578720438931
vt 0.059013749117691125 0.9322667619732566
vt 0.034808687065757946 0.9545907890747427
vt 0.059013749117691125 0.9322667619732566
vt 0.05015004395332252 0.9180578720438931
vt 0.08203125000000001 0.9080390246703742
vt 0.5354923857758696 0.45054573802674325
vt 0.5501364491581785 0.4424211315796257
vt 0.5585098866581785 0.47477347532962566
vt 0.5354923857758696 0.45054573802674325
vt 0.5144368997300036 0.42522946416311624
vt 0.5398009968217355 0.41115732439037034
vt 0.5501364491581785 0.4424211315796257
vt 0.12752378684947074 0.5015316671695221
vt 0.12976753684947073 0.4691793234195222
vt 0.162940625 0.4738029055394497
vt 0.15625233734519878 0.5055357807389537
vt 0.12976753684947073 0.4691793234195222
vt 0.136455824504272 0.4374464482200181
vt 0.165184375 0.44145056178944964
vt 0.162940625 0.4738029055394497
vt 0.136455824504272 0.4374464482200181
vt 0.1469928465419043 0.40625
vt 0.16357939061716895 0.4085617910599638
vt 0.165184375 0.44145056178944964
vt 0.07365781250000002 0.9403913684203743
vt 0.059013749117691125 0.9322667619732568
vt 0.08203125000000001 0.9080390246703742
vt 0.5501364491581785 0.4424211315796257
vt 0.5668833241581784 0.4424211315796257
vt 0.5585098866581785 0.47477347532962566
vt 0.5501364491581785 0.4424211315796257
vt 0.5440067616581785 0.41006878782962564
vt 0.5730130116581785 0.41006878782962564
vt 0.5668833241581784 0.4424211315796257
vt 0.165184375 0.5061552492894497
vt 0.162940625 0.4738029055394497
vt 0.196434375 0.4738029055394497
vt 0.194190625 0.5061552492894497
vt 0.162940625 0.4738029055394497
vt 0.165184375 0.44145056178944964
vt 0.194190625 0.44145056178944964
vt 0.196434375 0.4738029055394497
vt 0.165184375 0.44145056178944964
vt 0.1713140625 0.4090982180394497
vt 0.1880609375 0.4090982180394497
vt 0.194190625 0.44145056178944964
vt 0.09040468750000001 0.9403913684203743
vt 0.07365781250000002 0.9403913684203743
vt 0.08203125000000001 0.9080390246703742
vn 0.12940952255126031 0.9659258262890683 0.2241438680420132
vn 0.35355339059327384 0.7071067811865475 0.6123724356957946
vn 0.48296291314453416 0.25881904510252096 0.8365163037378079
vn 0.4829629131445342 -0.2588190451025207 0.8365163037378078
vn 0.3535533905932741 -0.7071067811865475 0.6123724356957946
vn 0.12940952255126043 -0.9659258262890683 0.22414386804201333
vn 0.22414386804201306 0.9659258262890683 0.12940952255126048
vn 0.6123724356957946 0.7071067811865475 0.3535533905932737
vn 0.8365163037378078 0.25881904510252096 0.48296291314453427
vn 0.8365163037378077 -0.258819045102521 0.4829629131445347
vn 0.6123724356957942 -0.7071067811865476 0.35355339059327445
vn 0.22414386804201325 -0.9659258262890683 0.1294095225512606
vn 0.25881904510252046 0.9659258262890685 0
vn 0.7071067811865479 0.7071067811865471 0
vn 0.9659258262890683 0.25881904510252135 0
vn 0.9659258262890684 -0.2588190451025205 0
vn 0.7071067811865476 -0.7071067811865475 0
vn 0.25881904510252063 -0.9659258262890683 0
vn 0.224143868042013 0.9659258262890683 -0.1294095225512605
vn 0.6123724356957949 0.7071067811865471 -0.353553390593274
vn 0.8365163037378077 0.2588190451025212 -0.4829629131445344
vn 0.8365163037378079 -0.2588190451025205 -0.4829629131445342
vn 0.6123724356957944 -0.7071067811865472 -0.3535533905932746
vn 0.22414386804201325 -0.9659258262890683 -0.12940952255126065
vn 0.12940952255126045 0.9659258262890684 -0.22414386804201308
vn 0.353553390593274 0.7071067811865476 -0.6123724356957945
vn 0.48296291314453427 0.25881904510252085 -0.8365163037378079
vn 0.48296291314453427 -0.2588190451025204 -0.8365163037378079
vn 0.3535533905932742 -0.7071067811865477 -0.612372435695794
vn 0.12940952255126056 -0.9659258262890684 -0.22414386804201333
vn 1.6085896386393023e-16 0.9659258262890685 -0.2588190451025205
vn 3.466028960407394e-16 0.7071067811865475 -0.7071067811865476
vn 4.002225506620499e-16 0.25881904510252074 -0.9659258262890683
vn 4.621371947209861e-16 -0.2588190451025205 -0.9659258262890683
vn 4.0022255066204925e-16 -0.7071067811865476 -0.7071067811865476
vn 1.6085896386393038e-16 -0.9659258262890683 -0.2588190451025208
vn -0.12940952255126031 0.9659258262890685 -0.2241438680420132
vn -0.3535533905932738 0.7071067811865475 -0.6123724356957947
vn -0.4829629131445339 0.25881904510252074 -0.8365163037378082
vn -0.4829629131445341 -0.2588190451025205 -0.836516303737808
vn -0.35355339059327395 -0.7071067811865474 -0.6123724356957947
vn -0.12940952255126043 -0.9659258262890683 -0.22414386804201333
vn -0.22414386804201308 0.9659258262890683 -0.12940952255126043
vn -0.6123724356957946 0.7071067811865476 -0.35355339059327384
vn -0.8365163037378079 0.25881904510252096 -0.4829629131445341
vn -0.8365163037378077 -0.25881904510252096 -0.48296291314453443
vn -0.6123724356957944 -0.7071067811865476 -0.35355339059327434
vn -0.22414386804201328 -0.9659258262890683 -0.12940952255126054
vn -0.2588190451025205 0.9659258262890685 0
vn -0.7071067811865477 0.7071067811865474 -3.4660289604073983e-16
vn -0.9659258262890683 0.25881904510252096 0
vn -0.9659258262890684 -0.2588190451025206 0
vn -0.7071067811865477 -0.7071067811865474 0
vn -0.25881904510252063 -0.9659258262890683 0
vn -0.22414386804201325 0.9659258262890685 0.1294095225512603
vn -0.6123724356957946 0.7071067811865475 0.35355339059327384
vn -0.8365163037378084 0.2588190451025205 0.4829629131445339
vn -0.8365163037378082 -0.25881904510252046 0.4829629131445339
vn -0.6123724356957948 -0.7071067811865474 0.35355339059327395
vn -0.22414386804201336 -0.9659258262890683 0.1294095225512604
vn -0.12940952255126031 0.9659258262890683 0.2241438680420132
vn -0.35355339059327395 0.7071067811865476 0.6123724356957946
vn -0.48296291314453416 0.25881904510252085 0.8365163037378078
vn -0.4829629131445342 -0.25881904510252063 0.8365163037378079
vn -0.3535533905932739 -0.7071067811865475 0.6123724356957947
vn -0.12940952255126043 -0.9659258262890683 0.22414386804201336
vn 0 0.9659258262890683 0.2588190451025205
vn 0 0.7071067811865475 0.7071067811865477
vn 0 0.2588190451025207 0.9659258262890683
vn 0 -0.2588190451025205 0.9659258262890684
vn 0 -0.7071067811865476 0.7071067811865476
vn 0 -0.9659258262890683 0.2588190451025207
usemtl m_49fa28c7-745e-6e36-6e81-83feb7180262
f 6/17/6 7/18/6 8/19/6
f 6/20/7 9/21/7 10/22/7 7/23/7
f 9/24/8 11/25/8 12/26/8 10/27/8
f 11/28/9 13/29/9 14/30/9 12/31/9
f 13/32/10 15/33/10 16/34/10 14/35/10
f 16/36/11 15/37/11 17/38/11
f 7/39/12 18/40/12 8/41/12
f 7/42/13 10/43/13 19/44/13 18/45/13
f 10/46/14 12/47/14 20/48/14 19/49/14
f 12/50/15 14/51/15 21/52/15 20/53/15
f 14/54/16 16/55/16 22/56/16 21/57/16
f 22/58/17 16/59/17 17/60/17
f 18/61/18 23/62/18 8/63/18
f 18/64/19 19/65/19 24/66/19 23/67/19
f 19/68/20 20/69/20 25/70/20 24/71/20
f 20/72/21 21/73/21 26/74/21 25/75/21
f 21/76/22 22/77/22 27/78/22 26/79/22
f 27/80/23 22/81/23 17/82/23
f 23/83/24 28/84/24 8/85/24
f 23/86/25 24/87/25 29/88/25 28/89/25
f 24/90/26 25/91/26 30/92/26 29/93/26
f 25/94/27 26/95/27 31/96/27 30/97/27
f 26/98/28 27/99/28 32/100/28 31/101/28
f 32/102/29 27/103/29 17/104/29
f 28/105/30 33/106/30 8/107/30
f 28/108/31 29/109/31 34/110/31 33/111/31
f 29/112/32 30/113/32 35/114/32 34/115/32
f 30/116/33 31/117/33 36/118/33 35/119/33
f 31/120/34 32/121/34 37/122/34 36/123/34
f 37/124/35 32/125/35 17/126/35
f 33/127/36 38/128/36 8/129/36
f 33/130/37 34/131/37 39/132/37 38/133/37
f 34/134/38 35/135/38 40/136/38 39/137/38
f 35/138/39 36/139/39 41/140/39 40/141/39
f 36/142/40 37/143/40 42/144/40 41/145/40
f 42/146/41 37/147/41 17/148/41
f 38/149/42 43/150/42 8/151/42
f 38/152/43 39/153/43 44/154/43 43/155/43
f 39/156/44 40/157/44 45/158/44 44/159/44
f 40/160/45 41/161/45 46/162/45 45/163/45
f 41/164/46 42/165/46 47/166/46 46/167/46
f 47/168/47 42/169/47 17/170/47
f 43/171/48 48/172/48 8/173/48
f 43/174/49 44/175/49 49/176/49 48/177/49
f 44/178/50 45/179/50 50/180/50 49/181/50
f 45/182/51 46/183/51 51/184/51 50/185/51
f 46/186/52 47/187/52 52/188/52 51/189/52
f 52/190/53 47/191/53 17/192/53
f 48/193/54 53/194/54 8/195/54
f 48/196/55 49/197/55 54/198/55 53/199/55
f 49/200/56 50/201/56 55/202/56 54/203/56
f 50/204/57 51/205/57 56/206/57 55/207/57
f 51/208/58 52/209/58 57/210/58 56/211/58
f 57/212/59 52/213/59 17/214/59
f 53/215/60 58/216/60 8/217/60
f 53/218/61 54/219/61 59/220/61 58/221/61
f 54/222/62 55/223/62 60/224/62 59/225/62
f 55/226/63 56/227/63 61/228/63 60/229/63
f 56/230/64 57/231/64 62/232/64 61/233/64
f 62/234/65 57/235/65 17/236/65
f 58/237/66 63/238/66 8/239/66
f 58/240/67 59/241/67 64/242/67 63/243/67
f 59/244/68 60/245/68 65/246/68 64/247/68
f 60/248/69 61/249/69 66/250/69 65/251/69
f 61/252/70 62/253/70 67/254/70 66/255/70
f 67/256/71 62/257/71 17/258/71
f 63/259/72 6/260/72 8/261/72
f 63/262/73 64/263/73 9/264/73 6/265/73
f 64/266/74 65/267/74 11/268/74 9/269/74
f 65/270/75 66/271/75 13/272/75 11/273/75
f 66/274/76 67/275/76 15/276/76 13/277/76
f 15/278/77 67/279/77 17/280/77
o mesh
v 1.1866284167162193 2.7113363120680143 -0.3522797357447669
v 1.8294160264027588 2.244998002190716 0.25546418201521337
v 1.8294160264027588 1.4516446618994805 -0.35329724699350734
v 1.1866284167162193 1.9179829717767793 -0.9610411647534876
v 1.0633715832837807 1.0603403580776032 0.15666045024912723
v 1.0633715832837807 1.8536936983688383 0.765421879257848
v 0.4205839735972412 2.320032008246137 0.15767796149786778
v 0.4205839735972412 1.5266786679549018 -0.45108346751085304
vt 0.125 0.5625
vt 0 0.5625
vt 0 0.4375
vt 0.125 0.4375
vt 0.40625 0.5
vt 0.53125 0.5
vt 0.53125 0.625
vt 0.40625 0.625
vt 0.3984375 0.75
vt 0.5234375 0.75
vt 0.5234375 0.875
vt 0.3984375 0.875
vt 0.53125 0.75
vt 0.40625 0.75
vt 0.40625 0.625
vt 0.53125 0.625
vt 0.3671875 0.3984375
vt 0.3671875 0.5234375
vt 0.2421875 0.5234375
vt 0.2421875 0.3984375
vt 0.4921875 0.375
vt 0.4921875 0.5
vt 0.3671875 0.5
vt 0.3671875 0.375
vn 0.7660444431189779 0.3913043038218776 -0.509957697242635
vn -0.766044443118978 -0.3913043038218776 0.5099576972426348
vn -1.665334536937735e-16 0.7933533402912353 0.6087614290087207
vn -3.3306690738754696e-16 -0.7933533402912353 -0.6087614290087208
vn 0.6427876096865394 -0.46633830987729863 0.6077439177599805
vn -0.6427876096865393 0.4663383098772989 -0.6077439177599803
usemtl m_49fa28c7-745e-6e36-6e81-83feb7180262
f 68/281/78 69/282/78 70/283/78 71/284/78
f 72/285/79 73/286/79 74/287/79 75/288/79
f 73/289/80 69/290/80 68/291/80 74/292/80
f 71/293/81 70/294/81 72/295/81 75/296/81
f 70/297/82 69/298/82 73/299/82 72/300/82
f 74/301/83 68/302/83 71/303/83 75/304/83
o torus
v -0.9285254037844387 0.1875000000000001 0.12940952255126048
v -0.9048418174117504 0.09911165235168162 0.09150635094610979
v -0.6317698349399312 0.2567698349399312 0.09150635094610976
v -0.6964745962155614 0.3214745962155614 0.12940952255126045
v -0.8950317547305483 0.0625 1.4670192595672397e-16
v -0.6049682452694518 0.2299682452694517 1.0951650559838034e-16
v -0.9048418174117504 0.09911165235168151 -0.09150635094610952
v -0.6317698349399312 0.2567698349399311 -0.09150635094610955
v -0.9285254037844387 0.1875 -0.12940952255126026
v -0.6964745962155614 0.3214745962155613 -0.1294095225512603
v -0.9522089901571269 0.2758883476483185 -0.09150635094610958
v -0.7611793574911916 0.38617935749119153 -0.09150635094610961
v -0.962019052838329 0.3125 5.949458321114851e-17
v -0.787980947161671 0.412980947161671 3.718333099614233e-17
v -0.9522089901571269 0.2758883476483185 0.09150635094610973
v -0.7611793574911916 0.3861793574911916 0.0915063509461097
v -0.4741116523516816 0.5298418174117505 0.0915063509461097
v -0.5625 0.5535254037844387 0.1294095225512604
v -0.4375 0.5200317547305483 4.5109468236923053e-17
v -0.4741116523516815 0.5298418174117504 -0.09150635094610961
v -0.5625 0.5535254037844386 -0.12940952255126034
v -0.6508883476483185 0.5772089901571269 -0.09150635094610965
v -0.6875 0.587019052838329 -1.46089142073205e-18
v -0.6508883476483185 0.5772089901571269 0.09150635094610966
v -0.4741116523516816 0.8451581825882497 0.09150635094610962
v -0.5625 0.8214745962155614 0.12940952255126034
v -0.4375 0.8549682452694517 -2.926137247976424e-17
v -0.4741116523516815 0.8451581825882496 -0.09150635094610969
v -0.5625 0.8214745962155614 -0.1294095225512604
v -0.6508883476483185 0.7977910098428731 -0.0915063509461097
v -0.6875 0.787980947161671 -4.6083395850744424e-17
v -0.6508883476483185 0.7977910098428731 0.09150635094610961
v -0.6317698349399312 1.1182301650600688 0.09150635094610957
v -0.6964745962155614 1.0535254037844386 0.1294095225512603
v -0.6049682452694517 1.1450317547305482 -9.36684098412215e-17
v -0.6317698349399311 1.1182301650600688 -0.09150635094610975
v -0.6964745962155614 1.0535254037844386 -0.12940952255126045
v -0.7611793574911916 0.9888206425088084 -0.09150635094610975
v -0.787980947161671 0.962019052838329 -8.472761826761878e-17
v -0.7611793574911916 0.9888206425088084 0.09150635094610957
v -0.9048418174117503 1.2758883476483183 0.09150635094610954
v -0.9285254037844385 1.1875 0.12940952255126026
v -0.8950317547305482 1.3125 -1.3085383019956514e-16
v -0.9048418174117503 1.2758883476483183 -0.09150635094610977
v -0.9285254037844385 1.1874999999999998 -0.12940952255126048
v -0.9522089901571268 1.0991116523516815 -0.09150635094610977
v -0.9620190528383289 1.0625 -1.0703887048262496e-16
v -0.9522089901571268 1.0991116523516815 0.09150635094610954
v -1.2201581825882493 1.2758883476483183 0.09150635094610954
v -1.1964745962155612 1.1875 0.12940952255126026
v -1.2299682452694514 1.3125 -1.3085383019956517e-16
v -1.2201581825882493 1.2758883476483185 -0.09150635094610977
v -1.1964745962155612 1.1875 -0.12940952255126048
v -1.1727910098428729 1.0991116523516815 -0.09150635094610977
v -1.1629809471616708 1.0625 -1.0703887048262497e-16
v -1.1727910098428729 1.0991116523516815 0.09150635094610954
v -1.4932301650600688 1.1182301650600688 0.09150635094610957
v -1.4285254037844386 1.0535254037844388 0.1294095225512603
v -1.5200317547305482 1.1450317547305484 -9.366840984122152e-17
v -1.4932301650600688 1.118230165060069 -0.09150635094610975
v -1.4285254037844386 1.0535254037844386 -0.12940952255126045
v -1.3638206425088084 0.9888206425088085 -0.09150635094610975
v -1.337019052838329 0.962019052838329 -8.472761826761879e-17
v -1.3638206425088084 0.9888206425088084 0.09150635094610957
v -1.6508883476483183 0.8451581825882495 0.09150635094610962
v -1.5625 0.8214745962155613 0.12940952255126034
v -1.6875 0.8549682452694516 -2.926137247976421e-17
v -1.6508883476483185 0.8451581825882495 -0.09150635094610969
v -1.5625 0.8214745962155612 -0.1294095225512604
v -1.4741116523516815 0.797791009842873 -0.0915063509461097
v -1.4375 0.787980947161671 -4.6083395850744406e-17
v -1.4741116523516815 0.797791009842873 0.09150635094610961
v -1.6508883476483183 0.5298418174117507 0.0915063509461097
v -1.5625 0.5535254037844389 0.1294095225512604
v -1.6875 0.5200317547305486 4.5109468236922986e-17
v -1.6508883476483185 0.5298418174117506 -0.09150635094610961
v -1.5625 0.5535254037844388 -0.12940952255126034
v -1.4741116523516815 0.5772089901571271 -0.09150635094610965
v -1.4375 0.5870190528383292 -1.460891420732087e-18
v -1.4741116523516815 0.5772089901571271 0.09150635094610966
v -1.4932301650600688 0.25676983493993133 0.09150635094610976
v -1.4285254037844388 0.3214745962155615 0.12940952255126045
v -1.5200317547305484 0.22996824526945187 1.095165055983803e-16
v -1.493230165060069 0.2567698349399313 -0.09150635094610955
v -1.4285254037844388 0.3214745962155614 -0.1294095225512603
v -1.3638206425088084 0.38617935749119164 -0.09150635094610961
v -1.337019052838329 0.4129809471616711 3.7183330996142304e-17
v -1.3638206425088084 0.3861793574911917 0.0915063509461097
v -1.2201581825882495 0.09911165235168162 0.09150635094610979
v -1.1964745962155612 0.1875000000000001 0.12940952255126048
v -1.2299682452694516 0.0625 1.4670192595672397e-16
v -1.2201581825882495 0.09911165235168151 -0.09150635094610952
v -1.1964745962155612 0.1875 -0.12940952255126026
v -1.172791009842873 0.2758883476483185 -0.09150635094610958
v -1.162980947161671 0.3125 5.949458321114851e-17
v -1.172791009842873 0.2758883476483185 0.09150635094610973
vt 0.09877739845591987 0.8557723575970224
vt 0.10173771031508241 0.8437506319235112
vt 0.1366448712926772 0.8620542675616071
vt 0.12844042093218405 0.8713260233929621
vt 0.6134571951724027 0.7388823523737256
vt 0.6146837896442621 0.7265625
vt 0.6557289312415711 0.7348172497535165
vt 0.6520977328038882 0.7466537518937577
vt 0.5650036862948751 0.75
vt 0.5662302807667343 0.7623198523737256
vt 0.527589743135249 0.7700912518937577
vt 0.5239585446975661 0.7582547497535165
vt 0.17951236162047163 0.71875
vt 0.18247267347963414 0.7307717256735111
vt 0.15280965100336996 0.746325391469451
vt 0.1446052006428768 0.7370536356380959
vt 0.17856627480007775 0.5106782625858728
vt 0.18152622793736137 0.5226993126984409
vt 0.15710683623239727 0.5355029352439493
vt 0.14890270948275375 0.5262308930638335
vt 0.17761938215559905 0.5764789241559997
vt 0.17884591211307937 0.5887989097798627
vt 0.15421801734350213 0.5937499696337362
vt 0.15058794228313002 0.5819131229224777
vt 0.3367790575763206 0.9950476471127323
vt 0.33800558753380094 0.9827276614888693
vt 0.36503702740627 0.9881618602553474
vt 0.36140695234589787 0.9999987069666058
vt 0.26129172930678446 0.8781362184733759
vt 0.26707035649449506 0.8671875
vt 0.29209343358455275 0.889450856329722
vt 0.2818908923185833 0.8964641732076516
vt 0.1284407655256777 0.8713256339717829
vt 0.1366448712926772 0.8620542675616071
vt 0.15906155441661599 0.8944733990565431
vt 0.14748960155891944 0.8988752481529403
vt 0.2064723534990408 0.8406099728938504
vt 0.21830814407236462 0.8369785397409923
vt 0.2265625 0.8780244099697275
vt 0.21424264431500548 0.8792510047712647
vt 0.18012968036262988 0.59375
vt 0.19196547093595373 0.5973814331528582
vt 0.18419518011998903 0.6360224650302724
vt 0.1718753244349945 0.6347958702287352
vt 0.14460554523637045 0.7370540250592751
vt 0.15280965100336996 0.746325391469451
vt 0.1337608149701282 0.7738750056506083
vt 0.12218886211243166 0.7694731565542112
vt 0.14890232307063797 0.5262304563531943
vt 0.15710683623239727 0.5355029352439493
vt 0.14142448464537075 0.5581816960800541
vt 0.12985266339495116 0.5537795010188895
vt 0.23816295639216908 0.890625
vt 0.24999955085274084 0.8942563491452936
vt 0.2450469310099513 0.9188835917720655
vt 0.23272706765721046 0.9176570739874236
vt 0 0.6798063083858047
vt 0.011836594460571729 0.6761749592405111
vt 0.017272483195530357 0.7032070332279345
vt 0.004952619842789503 0.7044335510125765
vt 0.2818908923185833 0.8964641732076516
vt 0.29209391412144314 0.889450526004424
vt 0.3039174597757127 0.9207880939367533
vt 0.2916245932777199 0.9222617973230319
vt 0.14748953983908664 0.8988752716305152
vt 0.15906155441661599 0.8944733990565431
vt 0.16386046751588487 0.933594221591602
vt 0.15156761719075867 0.9321198286914278
vt 0.21424264431500548 0.8792510047712647
vt 0.2265621755650055 0.8780244422712647
vt 0.2265621755650055 0.9198916297712648
vt 0.21424264431500548 0.9186650672712648
vt 0.1718753244349945 0.6347958702287352
vt 0.18419485568499452 0.6360224327287352
vt 0.18419485568499452 0.6754364952287352
vt 0.1718753244349945 0.6766630577287351
vt 0.12218880039259886 0.7694731330766362
vt 0.1337608149701282 0.7738750056506083
vt 0.12968273761845622 0.8071195627115209
vt 0.11738988729333003 0.8085939556116951
vt 0.1298526016758203 0.5537794775394693
vt 0.14142448464537075 0.5581816960800541
vt 0.1380664248128402 0.5855498872831195
vt 0.12577353041327569 0.5870239126632247
vt 0.23272706765721046 0.9176570739874236
vt 0.24504738015721045 0.9188836364874235
vt 0.24504738015721045 0.9440039489874236
vt 0.23272706765721046 0.9452305114874235
vt 0.004952619842789503 0.7044335510125765
vt 0.017272932342789503 0.7032069885125765
vt 0.017272932342789503 0.7307804260125765
vt 0.004952619842789503 0.7295538635125765
vt 0.2916245932777199 0.9222617973230319
vt 0.30391752534058963 0.9207880860766516
vt 0.29983760454940445 0.9540324169527598
vt 0.288265834078147 0.9496299027051311
vt 0.15156768275519963 0.9321198365551652
vt 0.16386046751588487 0.933594221591602
vt 0.14994425733309266 0.970471060726193
vt 0.13974239941788522 0.9634567488112281
vt 0.21424231988001097 0.9186650349697275
vt 0.2265621755650055 0.9198916297712648
vt 0.21830781963737014 0.9609375
vt 0.20647202906404633 0.9573060668471418
vt 0.171875 0.6766630900302725
vt 0.18419485568499452 0.6754364952287352
vt 0.19196514650095914 0.7140775271061495
vt 0.18012935592763535 0.7177089602590077
vt 0.11738995285777101 0.8085939477479578
vt 0.12968273761845622 0.8071195627115209
vt 0.1415080209557707 0.8384564749675838
vt 0.1313061630405633 0.8454707868825488
vt 0.12577359597795174 0.5870239048014476
vt 0.1380664248128402 0.5855498872831195
vt 0.14780078500258692 0.6113472626545915
vt 0.13759794243015283 0.6183611705840629
vt 0.2327275168044696 0.9452304667720655
vt 0.24504738015721045 0.9440039489874236
vt 0.25 0.9686311916141953
vt 0.23816340553942827 0.9722625407594889
vt 0.004953068990048652 0.7295539082279345
vt 0.017272932342789503 0.7307804260125765
vt 0.01183704360783085 0.7578125
vt 4.4914725911421316e-7 0.7541811508547063
vt 0.288265834078147 0.9496299027051311
vt 0.2998375428308736 0.9540323934717624
vt 0.2807871791717293 0.9815809513324982
vt 0.2725829029620422 0.9723082627862275
vt 0.13974195246677537 0.963456441508919
vt 0.14994425733309266 0.970471060726193
vt 0.12049602968017659 0.9966690540308323
vt 0.11471784403895743 0.9857192638425107
vt 0.6520986852909555 0.7064723954103933
vt 0.6557292247122388 0.7183090997034081
vt 0.6146836235859285 0.7265615642090066
vt 0.6134571542496482 0.7142421875
vt 0.5239582512284091 0.7886225354944014
vt 0.5275887906496923 0.7767858312013867
vt 0.5662303216909996 0.7845556232909934
vt 0.5650038523547193 0.796875
vt 0.13130571608945346 0.845471094184858
vt 0.1415080209557707 0.8384564749675838
vt 0.16653212938358875 0.8607192973011755
vt 0.16075394374236962 0.871669087489497
vt 0.1375979754978774 0.618361147851773
vt 0.14780078500258692 0.6113472626545915
vt 0.16839958484880155 0.6296756255499487
vt 0.16262061144297774 0.640625
vt 0.15840043224489941 0.7618361367731071
vt 0.16203172709812919 0.7500000361323815
vt 0.1866587853988755 0.7549519231955927
vt 0.1854321303043879 0.7672723844599081
vt 0.11921830321318497 0.9609387872704226
vt 0.12284959806641471 0.9727748879111482
vt 0.09581790000692625 0.978211135597949
vt 0.09459124491243862 0.9658906743336337
vt 0.2725829029620422 0.9723082627862275
vt 0.2807871525814194 0.9815809212794312
vt 0.251123895439451 0.9971341395267459
vt 0.2481637649608444 0.9851123691902988
vt 0.094871875 0.984375
vt 0.09783203125 1
vt 0.05841796874999999 1
vt 0.061378125000000006 0.984375
vt 0.6134571542496482 0.7142421875
vt 0.6146837167496482 0.7265625
vt 0.5728165292496482 0.7265625
vt 0.5740430917496482 0.7142421875
vt 0.5650038523547193 0.796875
vt 0.5662304148547194 0.7845546875
vt 0.6056444773547194 0.7845546875
vt 0.6068710398547194 0.796875
vt 0.05060546874999999 0.9609375
vt 0.053565625000000006 0.9453125
vt 0.087059375 0.9453125
vt 0.09001953125 0.9609375
vt 0.143409375 1
vt 0.14636953125000002 0.984375
vt 0.17394296875 0.984375
vt 0.176903125 1
vt 0.1854321303043879 0.7672723844599081
vt 0.1866586928043879 0.7549528532099081
vt 0.21177900530438792 0.7549528532099081
vt 0.2130055678043879 0.7672723844599081
vt 0.09459124491243862 0.9658906743336337
vt 0.09581780741243862 0.9782102055836337
vt 0.06824436991243862 0.9782102055836337
vt 0.06947093241243862 0.9658906743336337
vt 0.2481637649608444 0.9851123691902988
vt 0.2511239212108444 0.9971342441902988
vt 0.21763017121084444 0.9971342441902988
vt 0.22059032746084442 0.9851123691902988
vt 0.04934520562826186 0.985717679518781
vt 0.04356694479512646 0.9966674300281263
vt 0.014118897044149703 0.970469234503547
vt 0.02432125007951616 0.9634546853455198
vt 0.5740430467046328 0.7142426399585301
vt 0.5728165292496482 0.7265625
vt 0.5317707752877612 0.7183074628726058
vt 0.5354024604914439 0.7064714819977553
vt 0.606870994809704 0.7968745475414699
vt 0.6056444773547194 0.7845546875
vt 0.6442850635679083 0.7767835295392251
vt 0.6479167487715909 0.7886195104140757
vt 0.23768273346190383 0.871668192660344
vt 0.23190447262876845 0.8607184421509987
vt 0.25692842817751416 0.8384554479777375
vt 0.2671307812128806 0.8454699971357649
vt 0.22800541020093268 0.6406230398274355
vt 0.22222570624104615 0.6296737735763194
vt 0.2428245729208779 0.6113454857939095
vt 0.2530281273302488 0.6183592789235504
vt 0.21300559977624722 0.7672727055836337
vt 0.21177900530438792 0.7549528532099081
vt 0.2364058693174177 0.75
vt 0.24003706775510059 0.7618365021402412
vt 0.06947096438429792 0.965890353209908
vt 0.06824436991243862 0.9782102055836337
vt 0.04121290193358528 0.9727740021402412
vt 0.044844100371268146 0.9609375
vt 0.22059036034512305 0.985112235639684
vt 0.21763017121084444 0.9971342441902988
vt 0.18796598234470716 0.9815828030662975
vt 0.19617045530682492 0.9723095921841776
vt 0.02432125007951616 0.9634546853455198
vt 0.014118863977904544 0.9704692572379889
vt 0.00020203248411512775 0.9335937815968347
vt 0.012494765367256466 0.932118964092213
vt 0.3716526465009592 0.8088693480329876
vt 0.35981686593947926 0.8125
vt 0.3515625 0.7714549109571105
vt 0.3638823556849945 0.7702283161555732
vt 0.34330780962552626 0.8192698978873163
vt 0.3314720290640463 0.8156392459203039
vt 0.33924231988001097 0.7769982140428895
vt 0.35156217556500546 0.7782248088444268
vt 0.2671307812128806 0.8454699971357649
vt 0.25692839511126897 0.8384554252432956
vt 0.26875487982352864 0.8071197039899889
vt 0.28104761270667 0.8085945214946106
vt 0.2530281273302488 0.6183592789235504
vt 0.24282591180345453 0.6113464061247119
vt 0.25255848986369067 0.5855480121353316
vt 0.26485146958672434 0.5870223718489761
vt 0.26183703359110344 0.9644484783879228
vt 0.2500004491472591 0.9608179104284122
vt 0.25495306899004866 0.9361906678016405
vt 0.2672729323427895 0.9374171855862824
vt 0.1484375 0.7307444320404894
vt 0.13660091555615567 0.734375
vt 0.13116501680446963 0.7073437071983595
vt 0.1434848801572105 0.7061171894137176
vt 0.19616937873826276 0.9723108089896143
vt 0.18796598234470716 0.9815828030662975
vt 0.16891512990176838 0.9540354222777065
vt 0.18048665459428292 0.9496319119363246
vt 0.012494765367256466 0.932118964092213
vt 0.00020272010904792692 0.9335936990992081
vt 0.005000847151721055 0.8944727801473701
vt 0.016572174734421602 0.898874325097105
vt 0.3638823556849945 0.7702283161555732
vt 0.35156282443499454 0.7714548786555733
vt 0.35156282443499454 0.7295876911555732
vt 0.3638823556849945 0.7308142536555733
vt 0.35156217556500546 0.7782248088444268
vt 0.3392426443150055 0.7769982463444268
vt 0.3392426443150055 0.7375841838444268
vt 0.35156217556500546 0.7363576213444267
vt 0.28104761270667 0.8085945214946106
vt 0.2687555674484614 0.8071197864876155
vt 0.26467815808129624 0.7738751474925075
vt 0.2762494856639969 0.7694736025427726
vt 0.26485146958672434 0.5870223718489761
vt 0.2525586135027956 0.5855480269639997
vt 0.24920126499972822 0.5581797484906401
vt 0.260773262383701 0.5537778307170593
vt 0.2672729323427895 0.9374171855862824
vt 0.2549526198427895 0.9361906230862824
vt 0.2549526198427895 0.9110703105862824
vt 0.2672729323427895 0.9098437480862824
vt 0.1434848801572105 0.7061171894137176
vt 0.1311645676572105 0.7073437519137176
vt 0.1311645676572105 0.6797703144137176
vt 0.1434848801572105 0.6809968769137176
vt 0.18048653821135646 0.9496319562255114
vt 0.16891512990176838 0.9540354222777065
vt 0.16483247465941037 0.9207914271021181
vt 0.17712552789870992 0.9222641272059364
vt 0.016572174734421602 0.898874325097105
vt 0.0050001998441994155 0.8944725339221092
vt 0.027415944800967318 0.8620531989409437
vt 0.03562078158881821 0.8713253914694509
vt 0.36388268011998903 0.7308142859571105
vt 0.35156282443499454 0.7295876911555732
vt 0.35981719037447374 0.6885426021126837
vt 0.3716529709359537 0.6921732540796962
vt 0.3515625 0.7363575890428895
vt 0.3392426443150055 0.7375841838444268
vt 0.3314723534990408 0.6989431519670124
vt 0.34330813406052074 0.6953125
vt 0.2762494856639969 0.7694736025427726
vt 0.26467751077377466 0.7738753937177684
vt 0.24562890391937806 0.7463264600901143
vt 0.25383374070722897 0.737054267561607
vt 0.260773262383701 0.5537778307170593
vt 0.24920132671946932 0.5581797250128241
vt 0.23352034048069364 0.5355004652925811
vt 0.24172431874335087 0.5262282909398013
vt 0.2672724831955303 0.9098437928016405
vt 0.2549526198427895 0.9110703105862824
vt 0.25 0.8864430679595106
vt 0.26183658444384433 0.8828125
vt 0.14348443100995134 0.6809968321983595
vt 0.1311645676572105 0.6797703144137176
vt 0.13660046640889648 0.6527390216120772
vt 0.14843705085274084 0.6563695895715878
vt 0.17712546233318666 0.9222641193512278
vt 0.16483247465941037 0.9207914271021181
vt 0.17665344264677213 0.8894528867469306
vt 0.1868562663684633 0.8964657937523454
vt 0.03562078158881821 0.8713253914694509
vt 0.02741633122832507 0.8620536356380959
vt 0.06232349220591987 0.84375
vt 0.06528380406508241 0.8557717256735111
vt 0.5354016821761195 0.7466520649047704
vt 0.5317710687584289 0.7348153833080959
vt 0.5728166182941286 0.7265626622084369
vt 0.574043164644262 0.73888203125
vt 0.6479164553024339 0.7582530422233847
vt 0.6442858418847435 0.7700897238200591
vt 0.6056443594166009 0.7623196901652888
vt 0.6068709057667344 0.7500003211237256
vt 0.25383374070722897 0.737054267561607
vt 0.24562929034673583 0.7463260233929621
vt 0.21596626787047163 0.7307723575970224
vt 0.21892657972963414 0.7187506319235112
vt 0.24172431874335087 0.5262282909398013
vt 0.23351996864489138 0.5355008855431326
vt 0.2090998098908915 0.5226987260394487
vt 0.21205982168736137 0.5106774376984409
vt 0.23222455771686998 0.5819132957069852
vt 0.22859401829558673 0.59375
vt 0.2039663177767991 0.5887979739888693
vt 0.2051927871130794 0.5764785972798627
vt 0.2870310120150133 1
vt 0.28340047259373 0.9881632957069852
vt 0.31043224319752066 0.9827285972798627
vt 0.31165871253380095 0.9950479739888692
vt 0.18685672879961832 0.8964661116042238
vt 0.17665344264677213 0.8894528867469306
vt 0.20167660099040433 0.867189621743148
vt 0.2074559587021327 0.8781382320500671
vt 0.06528380406508241 0.8557717256735111
vt 0.0623236478150824 0.8437506319235112
vt 0.10173771031508241 0.8437506319235112
vt 0.0987775540650824 0.8557717256735111
vt 0.574043164644262 0.73888203125
vt 0.572816602144262 0.7265625
vt 0.6146837896442621 0.7265625
vt 0.613457227144262 0.73888203125
vt 0.6068709057667344 0.7500003211237256
vt 0.6056443432667343 0.7623198523737256
vt 0.5662302807667343 0.7623198523737256
vt 0.5650037182667343 0.7500003211237256
vt 0.21892657972963414 0.7187506319235112
vt 0.21596642347963413 0.7307717256735111
vt 0.18247267347963414 0.7307717256735111
vt 0.17951251722963413 0.7187506319235112
vt 0.21205982168736137 0.5106774376984409
vt 0.20909966543736136 0.5226993126984409
vt 0.18152622793736137 0.5226993126984409
vt 0.17856607168736138 0.5106774376984409
vt 0.2051927871130794 0.5764785972798627
vt 0.2039662246130794 0.5887989097798627
vt 0.17884591211307937 0.5887989097798627
vt 0.1776193496130794 0.5764785972798627
vt 0.31165871253380095 0.9950479739888692
vt 0.3104321500338009 0.9827276614888693
vt 0.33800558753380094 0.9827276614888693
vt 0.33677902503380097 0.9950479739888692
vt 0.06824453124999999 0.875
vt 0.065284375 0.859375
vt 0.098778125 0.859375
vt 0.09581796875 0.875
vn 0.19705825599715976 -0.34131491143799486 0.9190604849374343
vn 0.46422240369631956 -0.8040567892137752 0.37147037516556597
vn 0.46422240369631945 -0.8040567892137754 -0.37147037516556497
vn 0.19705825599715965 -0.34131491143799525 -0.9190604849374342
vn -0.19705825599715973 0.3413149114379949 -0.9190604849374341
vn -0.46422240369631934 0.8040567892137755 -0.3714703751655651
vn -0.46422240369631956 0.8040567892137755 0.371470375165565
vn -0.19705825599716 0.34131491143799586 0.9190604849374339
vn 0.3413149114379953 -0.19705825599715968 0.9190604849374342
vn 0.8040567892137755 -0.4642224036963197 0.3714703751655652
vn 0.8040567892137757 -0.4642224036963199 -0.3714703751655646
vn 0.34131491143799525 -0.19705825599716012 -0.919060484937434
vn -0.341314911437995 0.19705825599715948 -0.9190604849374341
vn -0.8040567892137757 0.4642224036963193 -0.3714703751655648
vn -0.8040567892137757 0.4642224036963197 0.3714703751655646
vn -0.34131491143799536 0.19705825599716015 0.9190604849374339
vn 0.3941165119943199 2.431205967768221e-16 0.9190604849374341
vn 0.9284448073926387 7.882498630689553e-17 0.37147037516556586
vn 0.928444807392639 -9.768472259039129e-17 -0.37147037516556497
vn 0.39411651199431974 -2.0195198995311136e-16 -0.919060484937434
vn -0.39411651199431935 -2.4531860164707315e-16 -0.9190604849374341
vn -0.9284448073926389 -8.758331811877287e-17 -0.3714703751655649
vn -0.928444807392639 9.974129773444217e-17 0.37147037516556486
vn -0.3941165119943197 1.851226574570188e-16 0.919060484937434
vn 0.3413149114379953 0.19705825599716023 0.9190604849374341
vn 0.8040567892137752 0.4642224036963196 0.3714703751655654
vn 0.8040567892137755 0.46422240369631945 -0.371470375165565
vn 0.3413149114379952 0.1970582559971597 -0.9190604849374341
vn -0.34131491143799486 -0.1970582559971599 -0.9190604849374343
vn -0.8040567892137755 -0.4642224036963194 -0.37147037516556497
vn -0.8040567892137755 -0.4642224036963195 0.3714703751655651
vn -0.3413149114379952 -0.19705825599715976 0.9190604849374341
vn 0.19705825599715987 0.34131491143799547 0.9190604849374341
vn 0.4642224036963198 0.8040567892137753 0.3714703751655651
vn 0.46422240369631945 0.8040567892137759 -0.3714703751655646
vn 0.19705825599715973 0.341314911437995 -0.9190604849374341
vn -0.19705825599715984 -0.34131491143799525 -0.9190604849374341
vn -0.4642224036963196 -0.8040567892137757 -0.3714703751655645
vn -0.4642224036963199 -0.8040567892137755 0.37147037516556464
vn -0.19705825599716015 -0.34131491143799514 0.9190604849374341
vn 0 0.3941165119943204 0.9190604849374336
vn 0 0.9284448073926383 0.37147037516556686
vn 6.558831373926271e-16 0.9284448073926381 -0.37147037516556697
vn 3.365866499218523e-16 0.39411651199431935 -0.9190604849374341
vn 0 -0.39411651199432024 -0.9190604849374338
vn 0 -0.928444807392639 -0.3714703751655649
vn 0 -0.928444807392639 0.3714703751655649
vn 0 -0.39411651199431963 0.9190604849374341
vn -0.19705825599715995 0.3413149114379962 0.9190604849374336
vn -0.4642224036963187 0.8040567892137753 0.3714703751655668
vn -0.46422240369631895 0.804056789213776 -0.37147037516556514
vn -0.19705825599715998 0.3413149114379953 -0.9190604849374341
vn 0.19705825599715932 -0.3413149114379952 -0.9190604849374343
vn 0.4642224036963188 -0.8040567892137759 -0.3714703751655651
vn 0.4642224036963191 -0.8040567892137757 0.3714703751655651
vn 0.19705825599715954 -0.34131491143799514 0.9190604849374341
vn -0.34131491143799575 0.1970582559971601 0.9190604849374338
vn -0.8040567892137753 0.46422240369631934 0.3714703751655655
vn -0.8040567892137759 0.4642224036963194 -0.3714703751655646
vn -0.341314911437995 0.19705825599715945 -0.9190604849374342
vn 0.34131491143799547 -0.19705825599715995 -0.919060484937434
vn 0.8040567892137755 -0.4642224036963194 -0.371470375165565
vn 0.804056789213776 -0.46422240369631945 0.3714703751655646
vn 0.3413149114379952 -0.19705825599715945 0.9190604849374341
vn -0.3941165119943203 2.4312059677682265e-16 0.9190604849374338
vn -0.9284448073926382 7.882498630689561e-17 0.3714703751655669
vn -0.9284448073926391 -9.768472259039137e-17 -0.37147037516556486
vn -0.3941165119943195 -2.019519899531117e-16 -0.9190604849374342
vn 0.3941165119943193 -2.2487538484315075e-16 -0.9190604849374342
vn 0.928444807392639 -8.758331811877297e-17 -0.3714703751655649
vn 0.9284448073926389 9.974129773444232e-17 0.3714703751655649
vn 0.3941165119943198 2.0195198995311168e-16 0.9190604849374341
vn -0.3413149114379958 -0.19705825599715968 0.9190604849374338
vn -0.8040567892137753 -0.4642224036963186 0.37147037516556675
vn -0.804056789213776 -0.46422240369631934 -0.37147037516556464
vn -0.34131491143799547 -0.19705825599715987 -0.9190604849374341
vn 0.34131491143799497 0.19705825599715937 -0.9190604849374342
vn 0.8040567892137758 0.464222403696319 -0.371470375165565
vn 0.8040567892137754 0.46422240369631945 0.3714703751655651
vn 0.34131491143799547 0.19705825599715987 0.9190604849374341
vn -0.19705825599716006 -0.3413149114379954 0.9190604849374339
vn -0.46422240369631945 -0.8040567892137752 0.3714703751655661
vn -0.4642224036963195 -0.8040567892137758 -0.3714703751655645
vn -0.1970582559971598 -0.3413149114379958 -0.9190604849374338
vn 0.19705825599715956 0.34131491143799436 -0.9190604849374344
vn 0.46422240369631973 0.8040567892137755 -0.3714703751655651
vn 0.4642224036963199 0.8040567892137754 0.3714703751655645
vn 0.19705825599715956 0.34131491143799536 0.919060484937434
vn 0 -0.39411651199431935 0.9190604849374343
vn 0 -0.9284448073926386 0.37147037516556597
vn 0 -0.928444807392639 -0.37147037516556486
vn 0 -0.39411651199431974 -0.9190604849374341
vn 0 0.3941165119943193 -0.9190604849374343
vn 0 0.9284448073926389 -0.371470375165565
vn 0 0.928444807392639 0.3714703751655648
vn 0 0.3941165119943202 0.9190604849374338
usemtl m_49fa28c7-745e-6e36-6e81-83feb7180262
f 76/305/84 77/306/84 78/307/84 79/308/84
f 77/309/85 80/310/85 81/311/85 78/312/85
f 80/313/86 82/314/86 83/315/86 81/316/86
f 82/317/87 84/318/87 85/319/87 83/320/87
f 84/321/88 86/322/88 87/323/88 85/324/88
f 86/325/89 88/326/89 89/327/89 87/328/89
f 88/329/90 90/330/90 91/331/90 89/332/90
f 90/333/91 76/334/91 79/335/91 91/336/91
f 79/337/92 78/338/92 92/339/92 93/340/92
f 78/341/93 81/342/93 94/343/93 92/344/93
f 81/345/94 83/346/94 95/347/94 94/348/94
f 83/349/95 85/350/95 96/351/95 95/352/95
f 85/353/96 87/354/96 97/355/96 96/356/96
f 87/357/97 89/358/97 98/359/97 97/360/97
f 89/361/98 91/362/98 99/363/98 98/364/98
f 91/365/99 79/366/99 93/367/99 99/368/99
f 93/369/100 92/370/100 100/371/100 101/372/100
f 92/373/101 94/374/101 102/375/101 100/376/101
f 94/377/102 95/378/102 103/379/102 102/380/102
f 95/381/103 96/382/103 104/383/103 103/384/103
f 96/385/104 97/386/104 105/387/104 104/388/104
f 97/389/105 98/390/105 106/391/105 105/392/105
f 98/393/106 99/394/106 107/395/106 106/396/106
f 99/397/107 93/398/107 101/399/107 107/400/107
f 101/401/108 100/402/108 108/403/108 109/404/108
f 100/405/109 102/406/109 110/407/109 108/408/109
f 102/409/110 103/410/110 111/411/110 110/412/110
f 103/413/111 104/414/111 112/415/111 111/416/111
f 104/417/112 105/418/112 113/419/112 112/420/112
f 105/421/113 106/422/113 114/423/113 113/424/113
f 106/425/114 107/426/114 115/427/114 114/428/114
f 107/429/115 101/430/115 109/431/115 115/432/115
f 109/433/116 108/434/116 116/435/116 117/436/116
f 108/437/117 110/438/117 118/439/117 116/440/117
f 110/441/118 111/442/118 119/443/118 118/444/118
f 111/445/119 112/446/119 120/447/119 119/448/119
f 112/449/120 113/450/120 121/451/120 120/452/120
f 113/453/121 114/454/121 122/455/121 121/456/121
f 114/457/122 115/458/122 123/459/122 122/460/122
f 115/461/123 109/462/123 117/463/123 123/464/123
f 117/465/124 116/466/124 124/467/124 125/468/124
f 116/469/125 118/470/125 126/471/125 124/472/125
f 118/473/126 119/474/126 127/475/126 126/476/126
f 119/477/127 120/478/127 128/479/127 127/480/127
f 120/481/128 121/482/128 129/483/128 128/484/128
f 121/485/129 122/486/129 130/487/129 129/488/129
f 122/489/130 123/490/130 131/491/130 130/492/130
f 123/493/131 117/494/131 125/495/131 131/496/131
f 125/497/132 124/498/132 132/499/132 133/500/132
f 124/501/133 126/502/133 134/503/133 132/504/133
f 126/505/134 127/506/134 135/507/134 134/508/134
f 127/509/135 128/510/135 136/511/135 135/512/135
f 128/513/136 129/514/136 137/515/136 136/516/136
f 129/517/137 130/518/137 138/519/137 137/520/137
f 130/521/138 131/522/138 139/523/138 138/524/138
f 131/525/139 125/526/139 133/527/139 139/528/139
f 133/529/140 132/530/140 140/531/140 141/532/140
f 132/533/141 134/534/141 142/535/141 140/536/141
f 134/537/142 135/538/142 143/539/142 142/540/142
f 135/541/143 136/542/143 144/543/143 143/544/143
f 136/545/144 137/546/144 145/547/144 144/548/144
f 137/549/145 138/550/145 146/551/145 145/552/145
f 138/553/146 139/554/146 147/555/146 146/556/146
f 139/557/147 133/558/147 141/559/147 147/560/147
f 141/561/148 140/562/148 148/563/148 149/564/148
f 140/565/149 142/566/149 150/567/149 148/568/149
f 142/569/150 143/570/150 151/571/150 150/572/150
f 143/573/151 144/574/151 152/575/151 151/576/151
f 144/577/152 145/578/152 153/579/152 152/580/152
f 145/581/153 146/582/153 154/583/153 153/584/153
f 146/585/154 147/586/154 155/587/154 154/588/154
f 147/589/155 141/590/155 149/591/155 155/592/155
f 149/593/156 148/594/156 156/595/156 157/596/156
f 148/597/157 150/598/157 158/599/157 156/600/157
f 150/601/158 151/602/158 159/603/158 158/604/158
f 151/605/159 152/606/159 160/607/159 159/608/159
f 152/609/160 153/610/160 161/611/160 160/612/160
f 153/613/161 154/614/161 162/615/161 161/616/161
f 154/617/162 155/618/162 163/619/162 162/620/162
f 155/621/163 149/622/163 157/623/163 163/624/163
f 157/625/164 156/626/164 164/627/164 165/628/164
f 156/629/165 158/630/165 166/631/165 164/632/165
f 158/633/166 159/634/166 167/635/166 166/636/166
f 159/637/167 160/638/167 168/639/167 167/640/167
f 160/641/168 161/642/168 169/643/168 168/644/168
f 161/645/169 162/646/169 170/647/169 169/648/169
f 162/649/170 163/650/170 171/651/170 170/652/170
f 163/653/171 157/654/171 165/655/171 171/656/171
f 165/657/172 164/658/172 77/659/172 76/660/172
f 164/661/173 166/662/173 80/663/173 77/664/173
f 166/665/174 167/666/174 82/667/174 80/668/174
f 167/669/175 168/670/175 84/671/175 82/672/175
f 168/673/176 169/674/176 86/675/176 84/676/176
f 169/677/177 170/678/177 88/679/177 86/680/177
f 170/681/178 171/682/178 90/683/178 88/684/178
f 171/685/179 165/686/179 76/687/179 90/688/179