# Made in Blockbench 5.1.3
mtllib complextest.mtl

o pyramid
v 0 1.375 0
v 0.5 0 0.5
v 0.5 0 -0.5
v -0.5 0 0.5
v -0.5 0 -0.5
vt 1 0
vt 1 1
vt 0 1
vt 0 0
vt 0 0.29288749999999997
vt 1 0.29288749999999997
vt 0.5 1
vt 0 0.29288749999999997
vt 1 0.29288749999999997
vt 0.5 1
vt 0 0.29288749999999997
vt 1 0.29288749999999997
vt 0.5 1
vt 0 0.29288749999999997
vt 1 0.29288749999999997
vt 0.5 1
vn 0 -1 0
vn 0.9397934234884372 0.34174306308670443 0
vn 0 0.34174306308670443 0.9397934234884372
vn 0 0.34174306308670443 -0.9397934234884372
vn -0.9397934234884372 0.34174306308670443 0
usemtl none
f 3/1/1 2/2/1 4/3/1 5/4/1
f 2/5/2 3/6/2 1/7/2
f 4/8/3 2/9/3 1/10/3
f 3/11/4 5/12/4 1/13/4
f 5/14/5 4/15/5 1/16/5
o sphere
v 1.0625 -0.0625 0
v 1.0625 0.9375 0
v 1.1294872981077806 0.8705127018922194 0.24999999999999994
v 1.1785254037844386 0.6875 0.4330127018922193
v 1.1964745962155614 0.43750000000000006 0.49999999999999994
v 1.1785254037844386 0.1875000000000001 0.43301270189221935
v 1.1294872981077806 0.004487298107780646 0.24999999999999994
v 1.2455127018922192 0.8705127018922194 0.18301270189221927
v 1.3794872981077806 0.6875 0.31698729810778065
v 1.4285254037844386 0.43750000000000006 0.36602540378443865
v 1.3794872981077806 0.1875000000000001 0.3169872981077807
v 1.2455127018922192 0.004487298107780646 0.18301270189221927
v 1.3125 0.8705127018922194 0.06698729810778065
v 1.4955127018922192 0.6875 0.11602540378443862
v 1.5625 0.43750000000000006 0.13397459621556132
v 1.4955127018922194 0.1875000000000001 0.11602540378443864
v 1.3125 0.004487298107780646 0.06698729810778065
v 1.3125 0.8705127018922194 -0.06698729810778067
v 1.4955127018922192 0.6875 -0.11602540378443868
v 1.5625 0.43750000000000006 -0.13397459621556138
v 1.4955127018922194 0.1875000000000001 -0.1160254037844387
v 1.3125 0.004487298107780646 -0.06698729810778067
v 1.2455127018922192 0.8705127018922194 -0.18301270189221924
v 1.3794872981077806 0.6875 -0.31698729810778065
v 1.4285254037844386 0.43750000000000006 -0.3660254037844386
v 1.3794872981077808 0.1875000000000001 -0.31698729810778065
v 1.2455127018922192 0.004487298107780646 -0.18301270189221924
v 1.1294872981077808 0.8705127018922194 -0.2499999999999999
v 1.1785254037844388 0.6875 -0.43301270189221924
v 1.1964745962155614 0.43750000000000006 -0.4999999999999999
v 1.1785254037844388 0.1875000000000001 -0.4330127018922193
v 1.1294872981077808 0.004487298107780646 -0.2499999999999999
v 0.9955127018922194 0.8705127018922194 -0.24999999999999997
v 0.9464745962155615 0.6875 -0.43301270189221935
v 0.9285254037844388 0.43750000000000006 -0.5
v 0.9464745962155615 0.1875000000000001 -0.4330127018922194
v 0.9955127018922194 0.004487298107780646 -0.24999999999999997
v 0.8794872981077808 0.8705127018922194 -0.1830127018922193
v 0.7455127018922194 0.6875 -0.3169872981077807
v 0.6964745962155614 0.43750000000000006 -0.3660254037844387
v 0.7455127018922194 0.1875000000000001 -0.31698729810778076
v 0.8794872981077808 0.004487298107780646 -0.1830127018922193
v 0.8125 0.8705127018922194 -0.06698729810778062
v 0.6294872981077807 0.6875 -0.11602540378443858
v 0.5625 0.43750000000000006 -0.13397459621556126
v 0.6294872981077806 0.1875000000000001 -0.1160254037844386
v 0.8125 0.004487298107780646 -0.06698729810778062
v 0.8125 0.8705127018922194 0.06698729810778054
v 0.6294872981077806 0.6875 0.11602540378443843
v 0.5625 0.43750000000000006 0.1339745962155611
v 0.6294872981077806 0.1875000000000001 0.11602540378443844
v 0.8125 0.004487298107780646 0.06698729810778054
v 0.8794872981077807 0.8705127018922194 0.18301270189221922
v 0.7455127018922193 0.6875 0.3169872981077806
v 0.6964745962155613 0.43750000000000006 0.36602540378443854
v 0.7455127018922192 0.1875000000000001 0.3169872981077806
v 0.8794872981077807 0.004487298107780646 0.18301270189221922
v 0.9955127018922194 0.8705127018922194 0.24999999999999994
v 0.9464745962155614 0.6875 0.4330127018922193
v 0.9285254037844387 0.43750000000000006 0.49999999999999994
v 0.9464745962155614 0.1875000000000001 0.43301270189221935
v 0.9955127018922194 0.004487298107780646 0.24999999999999994
vt 0 0.7411749999999999
vt 0.133975 0.7411749999999999
vt 0.0669875 1
vt 0.0490375 1
vt 0 0.7411749999999999
vt 0.23205 0.7411749999999999
vt 0.18301250000000002 1
vt 0.017950000000000008 1
vt 0 0.7411749999999999
vt 0.26795 0.7411749999999999
vt 0.25 1
vt 0 1
vt 0.017950000000000008 0.7411749999999999
vt 0.25 0.7411749999999999
vt 0.26795 1
vt 0 1
vt 0.0490375 0.7411749999999999
vt 0.18301250000000002 0.7411749999999999
vt 0.23205 1
vt 0.133975 1
vt 0 1
vt 0.0669875 0.7411749999999999
vt 0 0.7411749999999999
vt 0.133975 0.7411749999999999
vt 0.0669875 1
vt 0.0490375 1
vt 0 0.7411749999999999
vt 0.23205 0.7411749999999999
vt 0.18301250000000002 1
vt 0.017950000000000008 1
vt 0 0.7411749999999999
vt 0.26795 0.7411749999999999
vt 0.25 1
vt 0 1
vt 0.017950000000000008 0.7411749999999999
vt 0.25 0.7411749999999999
vt 0.26795 1
vt 0 1
vt 0.0490375 0.7411749999999999
vt 0.18301250000000002 0.7411749999999999
vt 0.23205 1
vt 0.133975 1
vt 0 1
vt 0.0669875 0.7411749999999999
vt 0 0.7411749999999999
vt 0.133975 0.7411749999999999
vt 0.0669875 1
vt 0.0490375 1
vt 0 0.7411749999999999
vt 0.23205 0.7411749999999999
vt 0.18301250000000002 1
vt 0.017950000000000008 1
vt 0 0.7411749999999999
vt 0.26795 0.7411749999999999
vt 0.25 1
vt 0 1
vt 0.017950000000000008 0.7411749999999999
vt 0.25 0.7411749999999999
vt 0.26795 1
vt 0 1
vt 0.0490375 0.7411749999999999
vt 0.18301250000000002 0.7411749999999999
vt 0.23205 1
vt 0.133975 1
vt 0 1
vt 0.0669875 0.7411749999999999
vt 0 0.7411749999999999
vt 0.133975 0.7411749999999999
vt 0.0669875 1
vt 0.0490375 1
vt 0 0.7411749999999999
vt 0.23205 0.7411749999999999
vt 0.18301250000000002 1
vt 0.017950000000000008 1
vt 0 0.7411749999999999
vt 0.26795 0.7411749999999999
vt 0.25 1
vt 0 1
vt 0.017950000000000008 0.7411749999999999
vt 0.25 0.7411749999999999
vt 0.26795 1
vt 0 1
vt 0.0490375 0.7411749999999999
vt 0.18301250000000002 0.7411749999999999
vt 0.23205 1
vt 0.133975 1
vt 0 1
vt 0.0669875 0.7411749999999999
vt 0 0.7411749999999999
vt 0.133975 0.7411749999999999
vt 0.0669875 1
vt 0.0490375 1
vt 0 0.7411749999999999
vt 0.23205 0.7411749999999999
vt 0.18301250000000002 1
vt 0.017950000000000008 1
vt 0 0.7411749999999999
vt 0.26795 0.7411749999999999
vt 0.25 1
vt 0 1
vt 0.017950000000000008 0.7411749999999999
vt 0.25 0.7411749999999999
vt 0.26795 1
vt 0 1
vt 0.0490375 0.7411749999999999
vt 0.18301250000000002 0.7411749999999999
vt 0.23205 1
vt 0.133975 1
vt 0 1
vt 0.0669875 0.7411749999999999
vt 0 0.7411749999999999
vt 0.133975 0.7411749999999999
vt 0.0669875 1
vt 0.0490375 1
vt 0 0.7411749999999999
vt 0.23205 0.7411749999999999
vt 0.18301250000000002 1
vt 0.017950000000000008 1
vt 0 0.7411749999999999
vt 0.26795 0.7411749999999999
vt 0.25 1
vt 0 1
vt 0.017950000000000008 0.7411749999999999
vt 0.25 0.7411749999999999
vt 0.26795 1
vt 0 1
vt 0.0490375 0.7411749999999999
vt 0.18301250000000002 0.7411749999999999
vt 0.23205 1
vt 0.133975 1
vt 0 1
vt 0.0669875 0.7411749999999999
vt 0 0.7411749999999999
vt 0.133975 0.7411749999999999
vt 0.0669875 1
vt 0.0490375 1
vt 0 0.7411749999999999
vt 0.23205 0.7411749999999999
vt 0.18301250000000002 1
vt 0.017950000000000008 1
vt 0 0.7411749999999999
vt 0.26795 0.7411749999999999
vt 0.25 1
vt 0 1
vt 0.017950000000000008 0.7411749999999999
vt 0.25 0.7411749999999999
vt 0.26795 1
vt 0 1
vt 0.0490375 0.7411749999999999
vt 0.18301250000000002 0.7411749999999999
vt 0.23205 1
vt 0.133975 1
vt 0 1
vt 0.0669875 0.7411749999999999
vt 0 0.7411749999999999
vt 0.133975 0.7411749999999999
vt 0.0669875 1
vt 0.0490375 1
vt 0 0.7411749999999999
vt 0.23205 0.7411749999999999
vt 0.18301250000000002 1
vt 0.017950000000000008 1
vt 0 0.7411749999999999
vt 0.26795 0.7411749999999999
vt 0.25 1
vt 0 1
vt 0.017950000000000008 0.7411749999999999
vt 0.25 0.7411749999999999
vt 0.26795 1
vt 0 1
vt 0.0490375 0.7411749999999999
vt 0.18301250000000002 0.7411749999999999
vt 0.23205 1
vt 0.133975 1
vt 0 1
vt 0.0669875 0.7411749999999999
vt 0 0.7411749999999999
vt 0.133975 0.7411749999999999
vt 0.0669875 1
vt 0.0490375 1
vt 0 0.7411749999999999
vt 0.23205 0.7411749999999999
vt 0.18301250000000002 1
vt 0.017950000000000008 1
vt 0 0.7411749999999999
vt 0.26795 0.7411749999999999
vt 0.25 1
vt 0 1
vt 0.017950000000000008 0.7411749999999999
vt 0.25 0.7411749999999999
vt 0.26795 1
vt 0 1
vt 0.0490375 0.7411749999999999
vt 0.18301250000000002 0.7411749999999999
vt 0.23205 1
vt 0.133975 1
vt 0 1
vt 0.0669875 0.7411749999999999
vt 0 0.7411749999999999
vt 0.133975 0.7411749999999999
vt 0.0669875 1
vt 0.0490375 1
vt 0 0.7411749999999999
vt 0.23205 0.7411749999999999
vt 0.18301250000000002 1
vt 0.017950000000000008 1
vt 0 0.7411749999999999
vt 0.26795 0.7411749999999999
vt 0.25 1
vt 0 1
vt 0.017950000000000008 0.7411749999999999
vt 0.25 0.7411749999999999
vt 0.26795 1
vt 0 1
vt 0.0490375 0.7411749999999999
vt 0.18301250000000002 0.7411749999999999
vt 0.23205 1
vt 0.133975 1
vt 0 1
vt 0.0669875 0.7411749999999999
vt 0 0.7411749999999999
vt 0.133975 0.7411749999999999
vt 0.0669875 1
vt 0.0490375 1
vt 0 0.7411749999999999
vt 0.23205 0.7411749999999999
vt 0.18301250000000002 1
vt 0.017950000000000008 1
vt 0 0.7411749999999999
vt 0.26795 0.7411749999999999
vt 0.25 1
vt 0 1
vt 0.017950000000000008 0.7411749999999999
vt 0.25 0.7411749999999999
vt 0.26795 1
vt 0 1
vt 0.0490375 0.7411749999999999
vt 0.18301250000000002 0.7411749999999999
vt 0.23205 1
vt 0.133975 1
vt 0 1
vt 0.0669875 0.7411749999999999
vt 0 0.7411749999999999
vt 0.133975 0.7411749999999999
vt 0.0669875 1
vt 0.0490375 1
vt 0 0.7411749999999999
vt 0.23205 0.7411749999999999
vt 0.18301250000000002 1
vt 0.017950000000000008 1
vt 0 0.7411749999999999
vt 0.26795 0.7411749999999999
vt 0.25 1
vt 0 1
vt 0.017950000000000008 0.7411749999999999
vt 0.25 0.7411749999999999
vt 0.26795 1
vt 0 1
vt 0.0490375 0.7411749999999999
vt 0.18301250000000002 0.7411749999999999
vt 0.23205 1
vt 0.133975 1
vt 0 1
vt 0.0669875 0.7411749999999999
vn 0.12940952255126043 0.9659258262890683 0.22414386804201333
vn 0.35355339059327373 0.7071067811865477 0.6123724356957945
vn 0.48296291314453405 0.2588190451025207 0.836516303737808
vn 0.48296291314453427 -0.2588190451025205 0.8365163037378079
vn 0.3535533905932741 -0.7071067811865475 0.6123724356957946
vn 0.12940952255126043 -0.9659258262890683 0.22414386804201333
vn 0.22414386804201336 0.9659258262890683 0.12940952255126045
vn 0.6123724356957944 0.7071067811865478 0.3535533905932736
vn 0.8365163037378079 0.2588190451025208 0.48296291314453405
vn 0.8365163037378078 -0.25881904510252074 0.48296291314453427
vn 0.6123724356957945 -0.7071067811865475 0.353553390593274
vn 0.22414386804201336 -0.9659258262890683 0.12940952255126045
vn 0.2588190451025207 0.9659258262890683 0
vn 0.7071067811865475 0.7071067811865476 0
vn 0.9659258262890683 0.25881904510252063 0
vn 0.9659258262890683 -0.2588190451025205 0
vn 0.7071067811865476 -0.7071067811865475 0
vn 0.2588190451025207 -0.9659258262890683 0
vn 0.22414386804201333 0.9659258262890683 -0.12940952255126045
vn 0.6123724356957944 0.7071067811865477 -0.3535533905932738
vn 0.836516303737808 0.25881904510252063 -0.48296291314453416
vn 0.8365163037378078 -0.2588190451025205 -0.4829629131445344
vn 0.6123724356957945 -0.7071067811865474 -0.3535533905932741
vn 0.22414386804201333 -0.9659258262890683 -0.12940952255126045
vn 0.1294095225512604 0.9659258262890683 -0.22414386804201333
vn 0.35355339059327373 0.7071067811865477 -0.6123724356957944
vn 0.48296291314453427 0.2588190451025208 -0.836516303737808
vn 0.4829629131445343 -0.2588190451025208 -0.8365163037378078
vn 0.3535533905932739 -0.7071067811865475 -0.6123724356957947
vn 0.1294095225512604 -0.9659258262890683 -0.22414386804201333
vn 1.608589638639305e-16 0.9659258262890683 -0.2588190451025207
vn 3.466028960407396e-16 0.7071067811865477 -0.7071067811865475
vn 4.0022255066204975e-16 0.2588190451025207 -0.9659258262890683
vn 4.621371947209864e-16 -0.25881904510252063 -0.9659258262890684
vn 4.0022255066204975e-16 -0.7071067811865476 -0.7071067811865476
vn 1.6085896386393055e-16 -0.9659258262890683 -0.25881904510252074
vn -0.12940952255126034 0.9659258262890683 -0.2241438680420134
vn -0.3535533905932735 0.7071067811865477 -0.6123724356957946
vn -0.48296291314453377 0.25881904510252063 -0.8365163037378082
vn -0.482962913144534 -0.25881904510252046 -0.836516303737808
vn -0.3535533905932737 -0.7071067811865474 -0.6123724356957947
vn -0.12940952255126034 -0.9659258262890683 -0.2241438680420134
vn -0.22414386804201336 0.9659258262890683 -0.1294095225512604
vn -0.6123724356957945 0.7071067811865477 -0.3535533905932735
vn -0.836516303737808 0.25881904510252074 -0.4829629131445339
vn -0.8365163037378078 -0.25881904510252074 -0.48296291314453416
vn -0.6123724356957946 -0.7071067811865476 -0.3535533905932739
vn -0.22414386804201336 -0.9659258262890683 -0.1294095225512604
vn -0.2588190451025207 0.9659258262890683 -5.361965462131021e-17
vn -0.7071067811865474 0.7071067811865477 -2.310685973604933e-16
vn -0.9659258262890683 0.2588190451025207 -2.0011127533102507e-16
vn -0.9659258262890684 -0.2588190451025206 -2.3106859736049333e-16
vn -0.7071067811865477 -0.7071067811865474 -2.00111275331025e-16
vn -0.2588190451025207 -0.9659258262890683 -5.361965462131021e-17
vn -0.22414386804201336 0.9659258262890683 0.12940952255126034
vn -0.6123724356957946 0.7071067811865477 0.3535533905932736
vn -0.8365163037378082 0.25881904510252063 0.48296291314453377
vn -0.836516303737808 -0.2588190451025205 0.48296291314453405
vn -0.6123724356957948 -0.7071067811865475 0.3535533905932738
vn -0.22414386804201336 -0.9659258262890683 0.12940952255126034
vn -0.12940952255126045 0.9659258262890683 0.22414386804201333
vn -0.3535533905932738 0.7071067811865477 0.6123724356957944
vn -0.4829629131445341 0.2588190451025208 0.8365163037378079
vn -0.48296291314453443 -0.25881904510252085 0.8365163037378079
vn -0.353553390593274 -0.7071067811865475 0.6123724356957946
vn -0.12940952255126045 -0.9659258262890683 0.22414386804201333
vn 0 0.9659258262890683 0.2588190451025207
vn 0 0.7071067811865477 0.7071067811865475
vn 0 0.25881904510252063 0.9659258262890683
vn 0 -0.2588190451025205 0.9659258262890683
vn 0 -0.7071067811865474 0.7071067811865477
vn 0 -0.9659258262890683 0.2588190451025207
usemtl none
f 8/17/6 13/18/6 7/19/6
f 8/20/7 9/21/7 14/22/7 13/23/7
f 9/24/8 10/25/8 15/26/8 14/27/8
f 10/28/9 11/29/9 16/30/9 15/31/9
f 11/32/10 12/33/10 17/34/10 16/35/10
f 17/36/11 12/37/11 6/38/11
f 13/39/12 18/40/12 7/41/12
f 13/42/13 14/43/13 19/44/13 18/45/13
f 14/46/14 15/47/14 20/48/14 19/49/14
f 15/50/15 16/51/15 21/52/15 20/53/15
f 16/54/16 17/55/16 22/56/16 21/57/16
f 22/58/17 17/59/17 6/60/17
f 18/61/18 23/62/18 7/63/18
f 18/64/19 19/65/19 24/66/19 23/67/19
f 19/68/20 20/69/20 25/70/20 24/71/20
f 20/72/21 21/73/21 26/74/21 25/75/21
f 21/76/22 22/77/22 27/78/22 26/79/22
f 27/80/23 22/81/23 6/82/23
f 23/83/24 28/84/24 7/85/24
f 23/86/25 24/87/25 29/88/25 28/89/25
f 24/90/26 25/91/26 30/92/26 29/93/26
f 25/94/27 26/95/27 31/96/27 30/97/27
f 26/98/28 27/99/28 32/100/28 31/101/28
f 32/102/29 27/103/29 6/104/29
f 28/105/30 33/106/30 7/107/30
f 28/108/31 29/109/31 34/110/31 33/111/31
f 29/112/32 30/113/32 35/114/32 34/115/32
f 30/116/33 31/117/33 36/118/33 35/119/33
f 31/120/34 32/121/34 37/122/34 36/123/34
f 37/124/35 32/125/35 6/126/35
f 33/127/36 38/128/36 7/129/36
f 33/130/37 34/131/37 39/132/37 38/133/37
f 34/134/38 35/135/38 40/136/38 39/137/38
f 35/138/39 36/139/39 41/140/39 40/141/39
f 36/142/40 37/143/40 42/144/40 41/145/40
f 42/146/41 37/147/41 6/148/41
f 38/149/42 43/150/42 7/151/42
f 38/152/43 39/153/43 44/154/43 43/155/43
f 39/156/44 40/157/44 45/158/44 44/159/44
f 40/160/45 41/161/45 46/162/45 45/163/45
f 41/164/46 42/165/46 47/166/46 46/167/46
f 47/168/47 42/169/47 6/170/47
f 43/171/48 48/172/48 7/173/48
f 43/174/49 44/175/49 49/176/49 48/177/49
f 44/178/50 45/179/50 50/180/50 49/181/50
f 45/182/51 46/183/51 51/184/51 50/185/51
f 46/186/52 47/187/52 52/188/52 51/189/52
f 52/190/53 47/191/53 6/192/53
f 48/193/54 53/194/54 7/195/54
f 48/196/55 49/197/55 54/198/55 53/199/55
f 49/200/56 50/201/56 55/202/56 54/203/56
f 50/204/57 51/205/57 56/206/57 55/207/57
f 51/208/58 52/209/58 57/210/58 56/211/58
f 57/212/59 52/213/59 6/214/59
f 53/215/60 58/216/60 7/217/60
f 53/218/61 54/219/61 59/220/61 58/221/61
f 54/222/62 55/223/62 60/224/62 59/225/62
f 55/226/63 56/227/63 61/228/63 60/229/63
f 56/230/64 57/231/64 62/232/64 61/233/64
f 62/234/65 57/235/65 6/236/65
f 58/237/66 63/238/66 7/239/66
f 58/240/67 59/241/67 64/242/67 63/243/67
f 59/244/68 60/245/68 65/246/68 64/247/68
f 60/248/69 61/249/69 66/250/69 65/251/69
f 61/252/70 62/253/70 67/254/70 66/255/70
f 67/256/71 62/257/71 6/258/71
f 63/259/72 8/260/72 7/261/72
f 63/262/73 64/263/73 9/264/73 8/265/73
f 64/266/74 65/267/74 10/268/74 9/269/74
f 65/270/75 66/271/75 11/272/75 10/273/75
f 66/274/76 67/275/76 12/276/76 11/277/76
f 12/278/77 67/279/77 6/280/77
o mesh
v 1.8294160264027588 2.244998002190716 0.25546418201521337
v 1.1866284167162193 2.7113363120680143 -0.3522797357447669
v 1.8294160264027588 1.4516446618994805 -0.35329724699350734
v 1.1866284167162193 1.9179829717767793 -0.9610411647534876
v 1.0633715832837807 1.8536936983688383 0.765421879257848
v 0.4205839735972412 2.320032008246137 0.15767796149786778
v 1.0633715832837807 1.0603403580776032 0.15666045024912723
v 0.4205839735972412 1.5266786679549018 -0.45108346751085304
vt 1 1
vt 0 1
vt 0 0.5
vt 1 0.5
vt 1 0.5
vt 1 1
vt 0 1
vt 0 0.5
vt 0 0
vt 1 0
vt 1 1
vt 0 1
vt 1 0
vt 1 1
vt 0 1
vt 0 0
vt 1 0.5
vt 1 1
vt 0 1
vt 0 0.5
vt 1 1
vt 0 1
vt 0 0.5
vt 1 0.5
vn 0.7660444431189781 0.39130430382187753 -0.5099576972426347
vn -0.7660444431189781 -0.39130430382187753 0.5099576972426347
vn 8.326672684688674e-17 0.7933533402912352 0.6087614290087208
vn -8.326672684688674e-17 -0.7933533402912352 -0.6087614290087208
vn 0.6427876096865393 -0.46633830987729885 0.6077439177599804
vn -0.6427876096865393 0.46633830987729885 -0.6077439177599804
usemtl none
f 69/281/78 68/282/78 70/283/78 71/284/78
f 74/285/79 72/286/79 73/287/79 75/288/79
f 72/289/80 68/290/80 69/291/80 73/292/80
f 71/293/81 70/294/81 74/295/81 75/296/81
f 70/297/82 68/298/82 72/299/82 74/300/82
f 73/301/83 69/302/83 71/303/83 75/304/83
o torus
v -0.9285254037844387 0.1875000000000001 0.12940952255126048
v -0.9048418174117504 0.09911165235168162 0.09150635094610979
v -0.8950317547305483 0.0625 1.4670192595672397e-16
v -0.9048418174117504 0.09911165235168151 -0.09150635094610952
v -0.9285254037844387 0.1875 -0.12940952255126026
v -0.9522089901571269 0.2758883476483185 -0.09150635094610958
v -0.962019052838329 0.3125 5.949458321114851e-17
v -0.9522089901571269 0.2758883476483185 0.09150635094610973
v -0.6964745962155614 0.3214745962155614 0.12940952255126045
v -0.6317698349399312 0.2567698349399312 0.09150635094610976
v -0.6049682452694518 0.2299682452694517 1.0951650559838034e-16
v -0.6317698349399312 0.2567698349399311 -0.09150635094610955
v -0.6964745962155614 0.3214745962155613 -0.1294095225512603
v -0.7611793574911916 0.38617935749119153 -0.09150635094610961
v -0.787980947161671 0.412980947161671 3.718333099614233e-17
v -0.7611793574911916 0.3861793574911916 0.0915063509461097
v -0.5625 0.5535254037844387 0.1294095225512604
v -0.4741116523516816 0.5298418174117505 0.0915063509461097
v -0.4375 0.5200317547305483 4.5109468236923053e-17
v -0.4741116523516815 0.5298418174117504 -0.09150635094610961
v -0.5625 0.5535254037844386 -0.12940952255126034
v -0.6508883476483185 0.5772089901571269 -0.09150635094610965
v -0.6875 0.587019052838329 -1.46089142073205e-18
v -0.6508883476483185 0.5772089901571269 0.09150635094610966
v -0.5625 0.8214745962155614 0.12940952255126034
v -0.4741116523516816 0.8451581825882497 0.09150635094610962
v -0.4375 0.8549682452694517 -2.926137247976424e-17
v -0.4741116523516815 0.8451581825882496 -0.09150635094610969
v -0.5625 0.8214745962155614 -0.1294095225512604
v -0.6508883476483185 0.7977910098428731 -0.0915063509461097
v -0.6875 0.787980947161671 -4.6083395850744424e-17
v -0.6508883476483185 0.7977910098428731 0.09150635094610961
v -0.6964745962155614 1.0535254037844386 0.1294095225512603
v -0.6317698349399312 1.1182301650600688 0.09150635094610957
v -0.6049682452694517 1.1450317547305482 -9.36684098412215e-17
v -0.6317698349399311 1.1182301650600688 -0.09150635094610975
v -0.6964745962155614 1.0535254037844386 -0.12940952255126045
v -0.7611793574911916 0.9888206425088084 -0.09150635094610975
v -0.787980947161671 0.962019052838329 -8.472761826761878e-17
v -0.7611793574911916 0.9888206425088084 0.09150635094610957
v -0.9285254037844385 1.1875 0.12940952255126026
v -0.9048418174117503 1.2758883476483183 0.09150635094610954
v -0.8950317547305482 1.3125 -1.3085383019956514e-16
v -0.9048418174117503 1.2758883476483183 -0.09150635094610977
v -0.9285254037844385 1.1874999999999998 -0.12940952255126048
v -0.9522089901571268 1.0991116523516815 -0.09150635094610977
v -0.9620190528383289 1.0625 -1.0703887048262496e-16
v -0.9522089901571268 1.0991116523516815 0.09150635094610954
v -1.1964745962155612 1.1875 0.12940952255126026
v -1.2201581825882493 1.2758883476483183 0.09150635094610954
v -1.2299682452694514 1.3125 -1.3085383019956517e-16
v -1.2201581825882493 1.2758883476483185 -0.09150635094610977
v -1.1964745962155612 1.1875 -0.12940952255126048
v -1.1727910098428729 1.0991116523516815 -0.09150635094610977
v -1.1629809471616708 1.0625 -1.0703887048262497e-16
v -1.1727910098428729 1.0991116523516815 0.09150635094610954
v -1.4285254037844386 1.0535254037844388 0.1294095225512603
v -1.4932301650600688 1.1182301650600688 0.09150635094610957
v -1.5200317547305482 1.1450317547305484 -9.366840984122152e-17
v -1.4932301650600688 1.118230165060069 -0.09150635094610975
v -1.4285254037844386 1.0535254037844386 -0.12940952255126045
v -1.3638206425088084 0.9888206425088085 -0.09150635094610975
v -1.337019052838329 0.962019052838329 -8.472761826761879e-17
v -1.3638206425088084 0.9888206425088084 0.09150635094610957
v -1.5625 0.8214745962155613 0.12940952255126034
v -1.6508883476483183 0.8451581825882495 0.09150635094610962
v -1.6875 0.8549682452694516 -2.926137247976421e-17
v -1.6508883476483185 0.8451581825882495 -0.09150635094610969
v -1.5625 0.8214745962155612 -0.1294095225512604
v -1.4741116523516815 0.797791009842873 -0.0915063509461097
v -1.4375 0.787980947161671 -4.6083395850744406e-17
v -1.4741116523516815 0.797791009842873 0.09150635094610961
v -1.5625 0.5535254037844389 0.1294095225512604
v -1.6508883476483183 0.5298418174117507 0.0915063509461097
v -1.6875 0.5200317547305486 4.5109468236922986e-17
v -1.6508883476483185 0.5298418174117506 -0.09150635094610961
v -1.5625 0.5535254037844388 -0.12940952255126034
v -1.4741116523516815 0.5772089901571271 -0.09150635094610965
v -1.4375 0.5870190528383292 -1.460891420732087e-18
v -1.4741116523516815 0.5772089901571271 0.09150635094610966
v -1.4285254037844388 0.3214745962155615 0.12940952255126045
v -1.4932301650600688 0.25676983493993133 0.09150635094610976
v -1.5200317547305484 0.22996824526945187 1.095165055983803e-16
v -1.493230165060069 0.2567698349399313 -0.09150635094610955
v -1.4285254037844388 0.3214745962155614 -0.1294095225512603
v -1.3638206425088084 0.38617935749119164 -0.09150635094610961
v -1.337019052838329 0.4129809471616711 3.7183330996142304e-17
v -1.3638206425088084 0.3861793574911917 0.0915063509461097
v -1.1964745962155612 0.1875000000000001 0.12940952255126048
v -1.2201581825882495 0.09911165235168162 0.09150635094610979
v -1.2299682452694516 0.0625 1.4670192595672397e-16
v -1.2201581825882495 0.09911165235168151 -0.09150635094610952
v -1.1964745962155612 0.1875 -0.12940952255126026
v -1.172791009842873 0.2758883476483185 -0.09150635094610958
v -1.162980947161671 0.3125 5.949458321114851e-17
v -1.172791009842873 0.2758883476483185 0.09150635094610973
vt 0.023681249999999987 0.9999999999999973
vt 0 0.9038249999999973
vt 0.3153125 0.9038249999999973
vt 0.29163125 0.9999999999999973
vt 0.009812500000000002 1
vt 0 0.90144375
vt 0.3349375 0.90144375
vt 0.325125 1
vt 0 1
vt 0.009812500000000002 0.90144375
vt 0.325125 0.90144375
vt 0.3349375 1
vt 0 1
vt 0.023681249999999987 0.903825
vt 0.29163125 0.903825
vt 0.3153125 1
vt 0.26795 0.9038312500000001
vt 0.24426875 1
vt 0.023681250000000015 1
vt 0 0.9038312500000001
vt 0.2205875 0.9014375
vt 0.210775 1
vt 0.009812500000000002 1
vt 0 0.9014375
vt 0.210775 0.9014375
vt 0.2205875 1
vt 0 1
vt 0.009812500000000002 0.9014375
vt 0.24426875 0.9038312500000001
vt 0.26795 1
vt 0 1
vt 0.023681250000000015 0.9038312500000001
vt 0.023681249999999987 0.9999999999999973
vt 0 0.9038249999999973
vt 0.3153125 0.9038249999999973
vt 0.29163125 0.9999999999999973
vt 0.009812500000000002 1
vt 0 0.90144375
vt 0.3349375 0.90144375
vt 0.325125 1
vt 0 1
vt 0.009812500000000002 0.90144375
vt 0.325125 0.90144375
vt 0.3349375 1
vt 0 1
vt 0.023681249999999987 0.903825
vt 0.29163125 0.903825
vt 0.3153125 1
vt 0.26795 0.9038312500000001
vt 0.24426875 1
vt 0.023681250000000015 1
vt 0 0.9038312500000001
vt 0.2205875 0.9014375
vt 0.210775 1
vt 0.009812500000000002 1
vt 0 0.9014375
vt 0.210775 0.9014375
vt 0.2205875 1
vt 0 1
vt 0.009812500000000002 0.9014375
vt 0.24426875 0.9038312500000001
vt 0.26795 1
vt 0 1
vt 0.023681250000000015 0.9038312500000001
vt 0.023681249999999987 0.9999999999999973
vt 0 0.9038249999999973
vt 0.3153125 0.9038249999999973
vt 0.29163125 0.9999999999999973
vt 0.009812500000000002 1
vt 0 0.90144375
vt 0.3349375 0.90144375
vt 0.325125 1
vt 0 1
vt 0.009812500000000002 0.90144375
vt 0.325125 0.90144375
vt 0.3349375 1
vt 0 1
vt 0.023681249999999987 0.903825
vt 0.29163125 0.903825
vt 0.3153125 1
vt 0.26795 0.9038312500000001
vt 0.24426875 1
vt 0.023681250000000015 1
vt 0 0.9038312500000001
vt 0.2205875 0.9014375
vt 0.210775 1
vt 0.009812500000000002 1
vt 0 0.9014375
vt 0.210775 0.9014375
vt 0.2205875 1
vt 0 1
vt 0.009812500000000002 0.9014375
vt 0.24426875 0.9038312500000001
vt 0.26795 1
vt 0 1
vt 0.023681250000000015 0.9038312500000001
vt 0.023681249999999987 0.9999999999999973
vt 0 0.9038249999999973
vt 0.3153125 0.9038249999999973
vt 0.29163125 0.9999999999999973
vt 0.009812500000000002 1
vt 0 0.90144375
vt 0.3349375 0.90144375
vt 0.325125 1
vt 0 1
vt 0.009812500000000002 0.90144375
vt 0.325125 0.90144375
vt 0.3349375 1
vt 0 1
vt 0.023681249999999987 0.903825
vt 0.29163125 0.903825
vt 0.3153125 1
vt 0.26795 0.9038312500000001
vt 0.24426875 1
vt 0.023681250000000015 1
vt 0 0.9038312500000001
vt 0.2205875 0.9014375
vt 0.210775 1
vt 0.009812500000000002 1
vt 0 0.9014375
vt 0.210775 0.9014375
vt 0.2205875 1
vt 0 1
vt 0.009812500000000002 0.9014375
vt 0.24426875 0.9038312500000001
vt 0.26795 1
vt 0 1
vt 0.023681250000000015 0.9038312500000001
vt 0.023681249999999987 0.9999999999999973
vt 0 0.9038249999999973
vt 0.3153125 0.9038249999999973
vt 0.29163125 0.9999999999999973
vt 0.009812500000000002 1
vt 0 0.90144375
vt 0.3349375 0.90144375
vt 0.325125 1
vt 0 1
vt 0.009812500000000002 0.90144375
vt 0.325125 0.90144375
vt 0.3349375 1
vt 0 1
vt 0.023681249999999987 0.903825
vt 0.29163125 0.903825
vt 0.3153125 1
vt 0.26795 0.9038312500000001
vt 0.24426875 1
vt 0.023681250000000015 1
vt 0 0.9038312500000001
vt 0.2205875 0.9014375
vt 0.210775 1
vt 0.009812500000000002 1
vt 0 0.9014375
vt 0.210775 0.9014375
vt 0.2205875 1
vt 0 1
vt 0.009812500000000002 0.9014375
vt 0.24426875 0.9038312500000001
vt 0.26795 1
vt 0 1
vt 0.023681250000000015 0.9038312500000001
vt 0.023681249999999987 0.9999999999999973
vt 0 0.9038249999999973
vt 0.3153125 0.9038249999999973
vt 0.29163125 0.9999999999999973
vt 0.009812500000000002 1
vt 0 0.90144375
vt 0.3349375 0.90144375
vt 0.325125 1
vt 0 1
vt 0.009812500000000002 0.90144375
vt 0.325125 0.90144375
vt 0.3349375 1
vt 0 1
vt 0.023681249999999987 0.903825
vt 0.29163125 0.903825
vt 0.3153125 1
vt 0.26795 0.9038312500000001
vt 0.24426875 1
vt 0.023681250000000015 1
vt 0 0.9038312500000001
vt 0.2205875 0.9014375
vt 0.210775 1
vt 0.009812500000000002 1
vt 0 0.9014375
vt 0.210775 0.9014375
vt 0.2205875 1
vt 0 1
vt 0.009812500000000002 0.9014375
vt 0.24426875 0.9038312500000001
vt 0.26795 1
vt 0 1
vt 0.023681250000000015 0.9038312500000001
vt 0.023681249999999987 0.9999999999999973
vt 0 0.9038249999999973
vt 0.3153125 0.9038249999999973
vt 0.29163125 0.9999999999999973
vt 0.009812500000000002 1
vt 0 0.90144375
vt 0.3349375 0.90144375
vt 0.325125 1
vt 0 1
vt 0.009812500000000002 0.90144375
vt 0.325125 0.90144375
vt 0.3349375 1
vt 0 1
vt 0.023681249999999987 0.903825
vt 0.29163125 0.903825
vt 0.3153125 1
vt 0.26795 0.9038312500000001
vt 0.24426875 1
vt 0.023681250000000015 1
vt 0 0.9038312500000001
vt 0.2205875 0.9014375
vt 0.210775 1
vt 0.009812500000000002 1
vt 0 0.9014375
vt 0.210775 0.9014375
vt 0.2205875 1
vt 0 1
vt 0.009812500000000002 0.9014375
vt 0.24426875 0.9038312500000001
vt 0.26795 1
vt 0 1
vt 0.023681250000000015 0.9038312500000001
vt 0.023681249999999987 0.9999999999999973
vt 0 0.9038249999999973
vt 0.3153125 0.9038249999999973
vt 0.29163125 0.9999999999999973
vt 0.009812500000000002 1
vt 0 0.90144375
vt 0.3349375 0.90144375
vt 0.325125 1
vt 0 1
vt 0.009812500000000002 0.90144375
vt 0.325125 0.90144375
vt 0.3349375 1
vt 0 1
vt 0.023681249999999987 0.903825
vt 0.29163125 0.903825
vt 0.3153125 1
vt 0.26795 0.9038312500000001
vt 0.24426875 1
vt 0.023681250000000015 1
vt 0 0.9038312500000001
vt 0.2205875 0.9014375
vt 0.210775 1
vt 0.009812500000000002 1
vt 0 0.9014375
vt 0.210775 0.9014375
vt 0.2205875 1
vt 0 1
vt 0.009812500000000002 0.9014375
vt 0.24426875 0.9038312500000001
vt 0.26795 1
vt 0 1
vt 0.023681250000000015 0.9038312500000001
vt 0.023681249999999987 0.9999999999999973
vt 0 0.9038249999999973
vt 0.3153125 0.9038249999999973
vt 0.29163125 0.9999999999999973
vt 0.009812500000000002 1
vt 0 0.90144375
vt 0.3349375 0.90144375
vt 0.325125 1
vt 0 1
vt 0.009812500000000002 0.90144375
vt 0.325125 0.90144375
vt 0.3349375 1
vt 0 1
vt 0.023681249999999987 0.903825
vt 0.29163125 0.903825
vt 0.3153125 1
vt 0.26795 0.9038312500000001
vt 0.24426875 1
vt 0.023681250000000015 1
vt 0 0.9038312500000001
vt 0.2205875 0.9014375
vt 0.210775 1
vt 0.009812500000000002 1
vt 0 0.9014375
vt 0.210775 0.9014375
vt 0.2205875 1
vt 0 1
vt 0.009812500000000002 0.9014375
vt 0.24426875 0.9038312500000001
vt 0.26795 1
vt 0 1
vt 0.023681250000000015 0.9038312500000001
vt 0.023681249999999987 0.9999999999999973
vt 0 0.9038249999999973
vt 0.3153125 0.9038249999999973
vt 0.29163125 0.9999999999999973
vt 0.009812500000000002 1
vt 0 0.90144375
vt 0.3349375 0.90144375
vt 0.325125 1
vt 0 1
vt 0.009812500000000002 0.90144375
vt 0.325125 0.90144375
vt 0.3349375 1
vt 0 1
vt 0.023681249999999987 0.903825
vt 0.29163125 0.903825
vt 0.3153125 1
vt 0.26795 0.9038312500000001
vt 0.24426875 1
vt 0.023681250000000015 1
vt 0 0.9038312500000001
vt 0.2205875 0.9014375
vt 0.210775 1
vt 0.009812500000000002 1
vt 0 0.9014375
vt 0.210775 0.9014375
vt 0.2205875 1
vt 0 1
vt 0.009812500000000002 0.9014375
vt 0.24426875 0.9038312500000001
vt 0.26795 1
vt 0 1
vt 0.023681250000000015 0.9038312500000001
vt 0.023681249999999987 0.9999999999999973
vt 0 0.9038249999999973
vt 0.3153125 0.9038249999999973
vt 0.29163125 0.9999999999999973
vt 0.009812500000000002 1
vt 0 0.90144375
vt 0.3349375 0.90144375
vt 0.325125 1
vt 0 1
vt 0.009812500000000002 0.90144375
vt 0.325125 0.90144375
vt 0.3349375 1
vt 0 1
vt 0.023681249999999987 0.903825
vt 0.29163125 0.903825
vt 0.3153125 1
vt 0.26795 0.9038312500000001
vt 0.24426875 1
vt 0.023681250000000015 1
vt 0 0.9038312500000001
vt 0.2205875 0.9014375
vt 0.210775 1
vt 0.009812500000000002 1
vt 0 0.9014375
vt 0.210775 0.9014375
vt 0.2205875 1
vt 0 1
vt 0.009812500000000002 0.9014375
vt 0.24426875 0.9038312500000001
vt 0.26795 1
vt 0 1
vt 0.023681250000000015 0.9038312500000001
vt 0.023681249999999987 0.9999999999999973
vt 0 0.9038249999999973
vt 0.3153125 0.9038249999999973
vt 0.29163125 0.9999999999999973
vt 0.009812500000000002 1
vt 0 0.90144375
vt 0.3349375 0.90144375
vt 0.325125 1
vt 0 1
vt 0.009812500000000002 0.90144375
vt 0.325125 0.90144375
vt 0.3349375 1
vt 0 1
vt 0.023681249999999987 0.903825
vt 0.29163125 0.903825
vt 0.3153125 1
vt 0.26795 0.9038312500000001
vt 0.24426875 1
vt 0.023681250000000015 1
vt 0 0.9038312500000001
vt 0.2205875 0.9014375
vt 0.210775 1
vt 0.009812500000000002 1
vt 0 0.9014375
vt 0.210775 0.9014375
vt 0.2205875 1
vt 0 1
vt 0.009812500000000002 0.9014375
vt 0.24426875 0.9038312500000001
vt 0.26795 1
vt 0 1
vt 0.023681250000000015 0.9038312500000001
vn 0.19705825599715987 -0.341314911437995 0.9190604849374341
vn 0.46422240369631934 -0.8040567892137752 0.3714703751655661
vn 0.4642224036963196 -0.8040567892137758 -0.37147037516556475
vn 0.19705825599715962 -0.3413149114379952 -0.9190604849374341
vn -0.19705825599715973 0.34131491143799497 -0.9190604849374342
vn -0.46422240369631945 0.8040567892137754 -0.37147037516556514
vn -0.46422240369631956 0.8040567892137757 0.37147037516556475
vn -0.19705825599715993 0.34131491143799564 0.919060484937434
vn 0.3413149114379954 -0.1970582559971599 0.9190604849374341
vn 0.8040567892137751 -0.4642224036963194 0.3714703751655661
vn 0.8040567892137754 -0.4642224036963196 -0.3714703751655648
vn 0.34131491143799525 -0.19705825599715998 -0.919060484937434
vn -0.34131491143799514 0.19705825599715954 -0.9190604849374341
vn -0.8040567892137753 0.4642224036963194 -0.37147037516556536
vn -0.8040567892137758 0.4642224036963199 0.37147037516556447
vn -0.3413149114379952 0.19705825599715998 0.919060484937434
vn 0.39411651199431963 2.0407242228014021e-16 0.919060484937434
vn 0.9284448073926386 8.248299269499124e-17 0.3714703751655659
vn 0.928444807392639 -8.248299269499101e-17 -0.37147037516556486
vn 0.39411651199431935 -2.0407242228014024e-16 -0.9190604849374341
vn -0.39411651199431946 -2.0407242228014024e-16 -0.9190604849374341
vn -0.9284448073926389 -8.248299269499102e-17 -0.3714703751655649
vn -0.928444807392639 8.248299269499102e-17 0.3714703751655649
vn -0.3941165119943199 2.0407242228014021e-16 0.919060484937434
vn 0.34131491143799525 0.19705825599716006 0.919060484937434
vn 0.8040567892137751 0.4642224036963195 0.3714703751655658
vn 0.8040567892137754 0.46422240369631945 -0.37147037516556497
vn 0.341314911437995 0.19705825599715954 -0.9190604849374343
vn -0.34131491143799514 -0.19705825599715995 -0.9190604849374341
vn -0.8040567892137755 -0.46422240369631956 -0.3714703751655649
vn -0.8040567892137754 -0.4642224036963196 0.37147037516556497
vn -0.3413149114379954 -0.19705825599715973 0.9190604849374341
vn 0.19705825599715998 0.34131491143799564 0.9190604849374338
vn 0.46422240369631934 0.8040567892137752 0.3714703751655658
vn 0.4642224036963196 0.8040567892137755 -0.3714703751655652
vn 0.19705825599715984 0.34131491143799497 -0.919060484937434
vn -0.19705825599715981 -0.34131491143799525 -0.919060484937434
vn -0.4642224036963195 -0.8040567892137754 -0.37147037516556514
vn -0.46422240369631973 -0.8040567892137754 0.3714703751655648
vn -0.19705825599715984 -0.34131491143799497 0.9190604849374341
vn 1.4301211575107187e-16 0.3941165119943201 0.9190604849374338
vn 3.1529994522758226e-16 0.9284448073926388 0.37147037516556575
vn 3.209640885112857e-16 0.928444807392639 -0.3714703751655652
vn 1.514639924648336e-16 0.39411651199431935 -0.9190604849374343
vn -1.0221608401961396e-16 -0.39411651199431996 -0.919060484937434
vn -2.6274995435631863e-16 -0.928444807392639 -0.37147037516556525
vn -2.393791145626613e-16 -0.9284448073926389 0.3714703751655651
vn -1.6829332496092633e-16 -0.39411651199431963 0.9190604849374342
vn -0.1970582559971598 0.34131491143799575 0.9190604849374338
vn -0.46422240369631895 0.8040567892137754 0.3714703751655658
vn -0.46422240369631906 0.8040567892137757 -0.3714703751655651
vn -0.1970582559971596 0.3413149114379951 -0.9190604849374341
vn 0.19705825599715965 -0.3413149114379955 -0.9190604849374341
vn 0.464222403696319 -0.8040567892137757 -0.3714703751655652
vn 0.4642224036963192 -0.8040567892137757 0.371470375165565
vn 0.19705825599715973 -0.34131491143799525 0.9190604849374342
vn -0.3413149114379954 0.19705825599716015 0.9190604849374339
vn -0.8040567892137752 0.4642224036963193 0.37147037516556586
vn -0.8040567892137757 0.46422240369631945 -0.3714703751655651
vn -0.34131491143799536 0.19705825599715954 -0.919060484937434
vn 0.3413149114379952 -0.1970582559971599 -0.9190604849374342
vn 0.8040567892137754 -0.4642224036963194 -0.3714703751655654
vn 0.8040567892137758 -0.46422240369631956 0.3714703751655649
vn 0.3413149114379953 -0.19705825599715954 0.9190604849374341
vn -0.39411651199431963 2.0407242228014021e-16 0.919060484937434
vn -0.9284448073926387 8.248299269499126e-17 0.37147037516556597
vn -0.928444807392639 -8.248299269499102e-17 -0.3714703751655649
vn -0.3941165119943194 -1.1992575979967711e-16 -0.9190604849374343
vn 0.3941165119943196 -3.0628850629975426e-16 -0.9190604849374342
vn 0.928444807392639 -8.248299269499102e-17 -0.3714703751655649
vn 0.9284448073926391 8.248299269499102e-17 0.3714703751655649
vn 0.39411651199431996 1.19925759799677e-16 0.9190604849374341
vn -0.3413149114379956 -0.19705825599715965 0.9190604849374341
vn -0.8040567892137755 -0.46422240369631906 0.3714703751655659
vn -0.804056789213776 -0.4642224036963193 -0.3714703751655647
vn -0.3413149114379953 -0.19705825599715981 -0.919060484937434
vn 0.34131491143799525 0.19705825599715945 -0.9190604849374342
vn 0.8040567892137758 0.46422240369631906 -0.3714703751655654
vn 0.8040567892137758 0.46422240369631923 0.3714703751655647
vn 0.3413149114379954 0.19705825599715993 0.919060484937434
vn -0.19705825599716 -0.3413149114379952 0.919060484937434
vn -0.4642224036963196 -0.8040567892137751 0.3714703751655657
vn -0.4642224036963197 -0.8040567892137757 -0.37147037516556436
vn -0.19705825599715984 -0.34131491143799547 -0.9190604849374341
vn 0.1970582559971598 0.3413149114379949 -0.9190604849374343
vn 0.46422240369631956 0.8040567892137751 -0.3714703751655657
vn 0.4642224036963197 0.8040567892137757 0.3714703751655647
vn 0.19705825599715981 0.3413149114379954 0.919060484937434
vn 0 -0.3941165119943194 0.9190604849374341
vn 0 -0.9284448073926386 0.37147037516556614
vn 0 -0.9284448073926391 -0.3714703751655647
vn 0 -0.3941165119943197 -0.9190604849374342
vn 0 0.39411651199431924 -0.9190604849374342
vn 0 0.9284448073926389 -0.37147037516556514
vn 0 0.9284448073926391 0.37147037516556464
vn 0 0.39411651199432024 0.9190604849374339
usemtl none
f 76/305/84 77/306/84 85/307/84 84/308/84
f 77/309/85 78/310/85 86/311/85 85/312/85
f 78/313/86 79/314/86 87/315/86 86/316/86
f 79/317/87 80/318/87 88/319/87 87/320/87
f 80/321/88 81/322/88 89/323/88 88/324/88
f 81/325/89 82/326/89 90/327/89 89/328/89
f 82/329/90 83/330/90 91/331/90 90/332/90
f 83/333/91 76/334/91 84/335/91 91/336/91
f 84/337/92 85/338/92 93/339/92 92/340/92
f 85/341/93 86/342/93 94/343/93 93/344/93
f 86/345/94 87/346/94 95/347/94 94/348/94
f 87/349/95 88/350/95 96/351/95 95/352/95
f 88/353/96 89/354/96 97/355/96 96/356/96
f 89/357/97 90/358/97 98/359/97 97/360/97
f 90/361/98 91/362/98 99/363/98 98/364/98
f 91/365/99 84/366/99 92/367/99 99/368/99
f 92/369/100 93/370/100 101/371/100 100/372/100
f 93/373/101 94/374/101 102/375/101 101/376/101
f 94/377/102 95/378/102 103/379/102 102/380/102
f 95/381/103 96/382/103 104/383/103 103/384/103
f 96/385/104 97/386/104 105/387/104 104/388/104
f 97/389/105 98/390/105 106/391/105 105/392/105
f 98/393/106 99/394/106 107/395/106 106/396/106
f 99/397/107 92/398/107 100/399/107 107/400/107
f 100/401/108 101/402/108 109/403/108 108/404/108
f 101/405/109 102/406/109 110/407/109 109/408/109
f 102/409/110 103/410/110 111/411/110 110/412/110
f 103/413/111 104/414/111 112/415/111 111/416/111
f 104/417/112 105/418/112 113/419/112 112/420/112
f 105/421/113 106/422/113 114/423/113 113/424/113
f 106/425/114 107/426/114 115/427/114 114/428/114
f 107/429/115 100/430/115 108/431/115 115/432/115
f 108/433/116 109/434/116 117/435/116 116/436/116
f 109/437/117 110/438/117 118/439/117 117/440/117
f 110/441/118 111/442/118 119/443/118 118/444/118
f 111/445/119 112/446/119 120/447/119 119/448/119
f 112/449/120 113/450/120 121/451/120 120/452/120
f 113/453/121 114/454/121 122/455/121 121/456/121
f 114/457/122 115/458/122 123/459/122 122/460/122
f 115/461/123 108/462/123 116/463/123 123/464/123
f 116/465/124 117/466/124 125/467/124 124/468/124
f 117/469/125 118/470/125 126/471/125 125/472/125
f 118/473/126 119/474/126 127/475/126 126/476/126
f 119/477/127 120/478/127 128/479/127 127/480/127
f 120/481/128 121/482/128 129/483/128 128/484/128
f 121/485/129 122/486/129 130/487/129 129/488/129
f 122/489/130 123/490/130 131/491/130 130/492/130
f 123/493/131 116/494/131 124/495/131 131/496/131
f 124/497/132 125/498/132 133/499/132 132/500/132
f 125/501/133 126/502/133 134/503/133 133/504/133
f 126/505/134 127/506/134 135/507/134 134/508/134
f 127/509/135 128/510/135 136/511/135 135/512/135
f 128/513/136 129/514/136 137/515/136 136/516/136
f 129/517/137 130/518/137 138/519/137 137/520/137
f 130/521/138 131/522/138 139/523/138 138/524/138
f 131/525/139 124/526/139 132/527/139 139/528/139
f 132/529/140 133/530/140 141/531/140 140/532/140
f 133/533/141 134/534/141 142/535/141 141/536/141
f 134/537/142 135/538/142 143/539/142 142/540/142
f 135/541/143 136/542/143 144/543/143 143/544/143
f 136/545/144 137/546/144 145/547/144 144/548/144
f 137/549/145 138/550/145 146/551/145 145/552/145
f 138/553/146 139/554/146 147/555/146 146/556/146
f 139/557/147 132/558/147 140/559/147 147/560/147
f 140/561/148 141/562/148 149/563/148 148/564/148
f 141/565/149 142/566/149 150/567/149 149/568/149
f 142/569/150 143/570/150 151/571/150 150/572/150
f 143/573/151 144/574/151 152/575/151 151/576/151
f 144/577/152 145/578/152 153/579/152 152/580/152
f 145/581/153 146/582/153 154/583/153 153/584/153
f 146/585/154 147/586/154 155/587/154 154/588/154
f 147/589/155 140/590/155 148/591/155 155/592/155
f 148/593/156 149/594/156 157/595/156 156/596/156
f 149/597/157 150/598/157 158/599/157 157/600/157
f 150/601/158 151/602/158 159/603/158 158/604/158
f 151/605/159 152/606/159 160/607/159 159/608/159
f 152/609/160 153/610/160 161/611/160 160/612/160
f 153/613/161 154/614/161 162/615/161 161/616/161
f 154/617/162 155/618/162 163/619/162 162/620/162
f 155/621/163 148/622/163 156/623/163 163/624/163
f 156/625/164 157/626/164 165/627/164 164/628/164
f 157/629/165 158/630/165 166/631/165 165/632/165
f 158/633/166 159/634/166 167/635/166 166/636/166
f 159/637/167 160/638/167 168/639/167 167/640/167
f 160/641/168 161/642/168 169/643/168 168/644/168
f 161/645/169 162/646/169 170/647/169 169/648/169
f 162/649/170 163/650/170 171/651/170 170/652/170
f 163/653/171 156/654/171 164/655/171 171/656/171
f 164/657/172 165/658/172 77/659/172 76/660/172
f 165/661/173 166/662/173 78/663/173 77/664/173
f 166/665/174 167/666/174 79/667/174 78/668/174
f 167/669/175 168/670/175 80/671/175 79/672/175
f 168/673/176 169/674/176 81/675/176 80/676/176
f 169/677/177 170/678/177 82/679/177 81/680/177
f 170/681/178 171/682/178 83/683/178 82/684/178
f 171/685/179 164/686/179 76/687/179 83/688/179