# Made in Blockbench 5.1.3
mtllib goofy.mtl

o mesh
v -0.1874999999999999 1 0.5
v -0.1874999999999999 1 -0.5
v 0.1875000000000001 1 0.5
v 0.1875000000000001 1 -0.5
v -0.5000000000000001 1.6653345369377348e-16 0.6875
v -0.5000000000000001 1.6653345369377348e-16 -0.6875
v 0.4999999999999999 0 0.6875
v 0.4999999999999999 0 -0.6875
vt 1 0.5
vt 1 1
vt 0 1
vt 0 0.5
vt 0 0
vt 1 0
vt 1 1
vt 0 1
vt 1 0
vt 1 1
vt 0 1
vt 0 0
vt 1 0.5
vt 1 1
vt 0 1
vt 0 0.5
vt 1 1
vt 0 1
vt 0 0.5
vt 1 0.5
vt 1 1
vt 0 1
vt 0 0.5
vt 1 0.5
vn -2.220446049250313e-16 -1 0
vn -0.9544799780350298 0.2982749931359471 0
vn 0.95447997803503 0.29827499313594663 0
vn 4.092027495743119e-17 0.18428853505018536 0.9828721869343219
vn 4.092027495743119e-17 0.18428853505018536 -0.9828721869343219
vn 2.220446049250313e-16 1 0
usemtl none
f 7/1/1 5/2/1 6/3/1 8/4/1
f 5/5/2 1/6/2 2/7/2 6/8/2
f 4/9/3 3/10/3 7/11/3 8/12/3
f 3/13/4 1/14/4 5/15/4 7/16/4
f 6/17/5 2/18/5 4/19/5 8/20/5
f 2/21/6 1/22/6 3/23/6 4/24/6